<svg width="42" height="33" viewBox="0 0 42 33" fill="none" xmlns="http://www.w3.org/2000/svg">
<path d="M39.6815 18.4433H38.8625C37.7324 18.4433 36.8153 19.3605 36.8153 20.4906V20.9492C36.3321 20.6625 35.7753 20.4906 35.1774 20.4906H22.7218C22.4024 19.7699 21.6818 19.2622 20.8465 19.2622H19.2087C18.3734 19.2622 17.6528 19.7699 17.3334 20.4906H13.8858V19.6717C13.8858 18.3204 12.7802 17.2149 11.429 17.2149H6.51558C6.22896 17.2149 5.95053 17.2722 5.69667 17.3623V13.5298C5.69667 12.3997 4.77949 11.4825 3.64939 11.4825H2.83048C1.70038 11.4825 0.783203 12.3997 0.783203 13.5298V30.7269C0.783203 31.857 1.70038 32.7742 2.83048 32.7742H3.64939C4.77949 32.7742 5.69667 31.857 5.69667 30.7269V28.6797H36.8153V30.7269C36.8153 31.857 37.7324 32.7742 38.8625 32.7742H39.6815C40.8116 32.7742 41.7287 31.857 41.7287 30.7269V20.4906C41.7287 19.3605 40.8116 18.4433 39.6815 18.4433ZM4.05885 30.7269C4.05885 30.9562 3.87869 31.1364 3.64939 31.1364H2.83048C2.60118 31.1364 2.42102 30.9562 2.42102 30.7269V13.5298C2.42102 13.3005 2.60118 13.1204 2.83048 13.1204H3.64939C3.87869 13.1204 4.05885 13.3005 4.05885 13.5298V30.7269ZM18.7992 21.3095C18.7992 21.0802 18.9794 20.9 19.2087 20.9H20.8465C21.0758 20.9 21.256 21.0802 21.256 21.3095V23.7662H18.7992V21.3095ZM5.69667 19.6717C5.69667 19.2212 6.06518 18.8527 6.51558 18.8527H11.429C11.8794 18.8527 12.248 19.2212 12.248 19.6717V20.4906H5.69667V19.6717ZM5.69667 22.1284H17.1614V23.7662H5.69667V22.1284ZM36.8153 27.0418H5.69667V25.404H36.8153V27.0418ZM22.8938 23.7662V22.1284H35.1774C36.0783 22.1284 36.8153 22.8654 36.8153 23.7662H22.8938ZM40.0909 30.7269C40.0909 30.9562 39.9108 31.1364 39.6815 31.1364H38.8625C38.6333 31.1364 38.4531 30.9562 38.4531 30.7269V20.4906C38.4531 20.2613 38.6333 20.0811 38.8625 20.0811H39.6815C39.9108 20.0811 40.0909 20.2613 40.0909 20.4906V30.7269Z" fill="#1E1E1E"/>
<path d="M29.4436 18.0338C34.4144 18.0338 38.4516 13.9966 38.4516 9.02578C38.4516 4.05499 34.4144 0.0177612 29.4436 0.0177612C24.4728 0.0177612 20.4355 4.05499 20.4355 9.02578C20.4355 13.9966 24.4728 18.0338 29.4436 18.0338ZM29.4436 1.65558C33.5054 1.65558 36.8138 4.96398 36.8138 9.02578C36.8138 13.0876 33.5054 16.396 29.4436 16.396C25.3818 16.396 22.0734 13.0876 22.0734 9.02578C22.0734 4.96398 25.3818 1.65558 29.4436 1.65558Z" fill="#1E1E1E"/>
<path d="M24.942 11.4825H26.9892V13.5298C26.9892 13.9802 27.3577 14.3487 27.8081 14.3487H31.0838C31.5342 14.3487 31.9027 13.9802 31.9027 13.5298V11.4825H33.95C34.4004 11.4825 34.7689 11.114 34.7689 10.6636V7.38798C34.7689 6.93758 34.4004 6.56907 33.95 6.56907H31.9027V4.52179C31.9027 4.07139 31.5342 3.70288 31.0838 3.70288H27.8081C27.3577 3.70288 26.9892 4.07139 26.9892 4.52179V6.56907H24.942C24.4916 6.56907 24.123 6.93758 24.123 7.38798V10.6636C24.123 11.114 24.4916 11.4825 24.942 11.4825ZM25.7609 8.20689H27.8081C28.2585 8.20689 28.6271 7.83838 28.6271 7.38798V5.3407H30.2649V7.38798C30.2649 7.83838 30.6334 8.20689 31.0838 8.20689H33.1311V9.84471H31.0838C30.6334 9.84471 30.2649 10.2132 30.2649 10.6636V12.7109H28.6271V10.6636C28.6271 10.2132 28.2585 9.84471 27.8081 9.84471H25.7609V8.20689Z" fill="#1E1E1E"/>
</svg>
