<svg width="40" height="34" viewBox="0 0 40 34" fill="none" xmlns="http://www.w3.org/2000/svg">
<path d="M16.2881 12.7508L14.9284 10.3627C14.6606 9.88891 14.0426 9.71488 13.5378 9.96626C13.0331 10.2176 12.8477 10.8074 13.1155 11.2715L13.9602 12.7508H9.14973L9.99439 11.2715C10.2622 10.7977 10.0768 10.2176 9.57206 9.96626C9.06733 9.71488 8.44928 9.88891 8.18147 10.3627L6.82178 12.7508H5.37968C4.81314 12.7508 4.34961 13.1859 4.34961 13.7176C4.34961 14.2494 4.81314 14.6845 5.37968 14.6845H5.7402L6.21403 17.4787C6.40975 18.6582 7.48102 19.5187 8.75831 19.5187H14.3619C15.6392 19.5187 16.7001 18.6582 16.9062 17.4787L17.38 14.6845H17.7405C18.307 14.6845 18.7706 14.2494 18.7706 13.7176C18.7706 13.1859 18.307 12.7508 17.7405 12.7508H16.2984H16.2881ZM14.3516 17.585H8.748C8.49049 17.585 8.27417 17.411 8.24327 17.1789L7.82094 14.6845H15.2889L14.8666 17.1789C14.8254 17.411 14.6091 17.585 14.3619 17.585H14.3516Z" fill="#1E1E1E"/>
<path d="M21.8504 29.1871H34.2112C34.7778 29.1871 35.2413 28.752 35.2413 28.2203V22.4192C35.2413 21.8874 34.7778 21.4523 34.2112 21.4523H21.8504C21.2838 21.4523 20.8203 21.8874 20.8203 22.4192V28.2203C20.8203 28.752 21.2838 29.1871 21.8504 29.1871ZM22.8805 23.386H33.1811V27.2534H22.8805V23.386Z" fill="#1E1E1E"/>
<path d="M9.49019 21.4523H5.36991C4.80337 21.4523 4.33984 21.8874 4.33984 22.4192V28.2203C4.33984 28.752 4.80337 29.1871 5.36991 29.1871H9.49019C10.0567 29.1871 10.5203 28.752 10.5203 28.2203V22.4192C10.5203 21.8874 10.0567 21.4523 9.49019 21.4523ZM8.46012 27.2534H6.39998V23.386H8.46012V27.2534Z" fill="#1E1E1E"/>
<path d="M17.7285 21.4523H13.6082C13.0417 21.4523 12.5781 21.8874 12.5781 22.4192V28.2203C12.5781 28.752 13.0417 29.1871 13.6082 29.1871H17.7285C18.295 29.1871 18.7585 28.752 18.7585 28.2203V22.4192C18.7585 21.8874 18.295 21.4523 17.7285 21.4523ZM16.6984 27.2534H14.6383V23.386H16.6984V27.2534Z" fill="#1E1E1E"/>
<path d="M21.8504 11.7839H34.2112C34.7778 11.7839 35.2413 11.3488 35.2413 10.8171C35.2413 10.2853 34.7778 9.85022 34.2112 9.85022H21.8504C21.2838 9.85022 20.8203 10.2853 20.8203 10.8171C20.8203 11.3488 21.2838 11.7839 21.8504 11.7839Z" fill="#1E1E1E"/>
<path d="M21.8504 15.6513H34.2112C34.7778 15.6513 35.2413 15.2163 35.2413 14.6845C35.2413 14.1527 34.7778 13.7177 34.2112 13.7177H21.8504C21.2838 13.7177 20.8203 14.1527 20.8203 14.6845C20.8203 15.2163 21.2838 15.6513 21.8504 15.6513Z" fill="#1E1E1E"/>
<path d="M21.8504 19.5185H34.2112C34.7778 19.5185 35.2413 19.0834 35.2413 18.5517C35.2413 18.0199 34.7778 17.5848 34.2112 17.5848H21.8504C21.2838 17.5848 20.8203 18.0199 20.8203 18.5517C20.8203 19.0834 21.2838 19.5185 21.8504 19.5185Z" fill="#1E1E1E"/>
<path d="M36.2712 0.181702H32.1509C31.5844 0.181702 31.1208 0.616782 31.1208 1.14855C31.1208 1.68031 31.5844 2.11539 32.1509 2.11539H36.2712C36.8377 2.11539 37.3012 2.55047 37.3012 3.08224V4.04908H19.3986L20.4287 2.11539H23.9103C24.4769 2.11539 24.9404 1.68031 24.9404 1.14855C24.9404 0.616782 24.4769 0.181702 23.9103 0.181702H3.30896C1.60934 0.181702 0.21875 1.48694 0.21875 3.08224V30.1539C0.21875 31.7492 1.60934 33.0545 3.30896 33.0545H36.2712C37.9708 33.0545 39.3614 31.7492 39.3614 30.1539V3.08224C39.3614 1.48694 37.9708 0.181702 36.2712 0.181702ZM15.7934 2.11539H18.1214L16.3496 5.45101C16.1745 5.77974 15.8243 5.98278 15.4329 5.98278H13.7333L15.7934 2.11539ZM2.27889 3.08224C2.27889 2.55047 2.74242 2.11539 3.30896 2.11539H13.486L11.4259 5.98278H2.27889V3.08224ZM37.3012 30.1539C37.3012 30.6857 36.8377 31.1208 36.2712 31.1208H3.30896C2.74242 31.1208 2.27889 30.6857 2.27889 30.1539V7.91647H15.4226C16.5969 7.91647 17.6578 7.29769 18.1832 6.3115L18.3583 5.98278H37.2909V30.1539H37.3012Z" fill="#1E1E1E"/>
<path d="M28.032 2.11539C28.6009 2.11539 29.0621 1.68252 29.0621 1.14855C29.0621 0.614573 28.6009 0.181702 28.032 0.181702C27.4631 0.181702 27.002 0.614573 27.002 1.14855C27.002 1.68252 27.4631 2.11539 28.032 2.11539Z" fill="#1E1E1E"/>
</svg>
