<svg width="41" height="36" viewBox="0 0 41 36" fill="none" xmlns="http://www.w3.org/2000/svg">
<g clip-path="url(#clip0_2368_182)">
<mask id="path-1-inside-1_2368_182" fill="white">
<path d="M25.053 28.9593C23.9785 28.9593 23.1045 29.8334 23.1045 30.9079C23.1045 31.9824 23.9785 32.8564 25.053 32.8564C26.1275 32.8564 27.0016 31.9824 27.0016 30.9079C27.0016 29.8334 26.1275 28.9593 25.053 28.9593ZM25.053 31.7063C24.6127 31.7063 24.2546 31.3482 24.2546 30.9079C24.2546 30.4676 24.6127 30.1094 25.053 30.1094C25.4934 30.1094 25.8515 30.4676 25.8515 30.9079C25.8515 31.3482 25.4934 31.7063 25.053 31.7063Z"/>
<path d="M21.0639 17.4586H15.5206C15.2018 17.4586 14.9455 17.7149 14.9455 18.0336C14.9455 18.3524 15.2018 18.6087 15.5206 18.6087H21.0639C21.3827 18.6087 21.639 18.3524 21.639 18.0336C21.639 17.7149 21.3827 17.4586 21.0639 17.4586Z"/>
<path d="M21.0639 19.7522H15.5206C15.2018 19.7522 14.9455 20.0085 14.9455 20.3272C14.9455 20.6459 15.2018 20.9022 15.5206 20.9022H21.0639C21.3827 20.9022 21.639 20.6459 21.639 20.3272C21.639 20.0085 21.3827 19.7522 21.0639 19.7522Z"/>
<path d="M18.1263 22.0424H15.5239C15.2051 22.0424 14.9488 22.2988 14.9488 22.6175C14.9488 22.9362 15.2051 23.1925 15.5239 23.1925H18.1263C18.445 23.1925 18.7014 22.9362 18.7014 22.6175C18.7014 22.2988 18.445 22.0424 18.1263 22.0424Z"/>
<path d="M14.3639 7.27223H16.8645C17.1833 7.27223 17.4396 7.01592 17.4396 6.69719C17.4396 6.37846 17.1833 6.12215 16.8645 6.12215H14.3639C14.0452 6.12215 13.7889 6.37846 13.7889 6.69719C13.7889 7.01592 14.0452 7.27223 14.3639 7.27223Z"/>
<path d="M4.36816 35.0941C5.37694 35.0941 6.33971 34.7228 7.09219 34.0689C7.9071 34.7097 8.92902 35.0941 10.0429 35.0941C11.1569 35.0941 12.1788 34.7097 12.9937 34.0689C13.7462 34.7228 14.709 35.0941 15.7177 35.0941C16.8119 35.0941 17.8043 34.667 18.5469 33.9703C18.9281 34.6374 19.6444 35.0909 20.4659 35.0909H35.2033C38.8671 35.0909 40.7992 32.0514 40.7992 28.9429C40.7992 26.462 40.7992 23.8793 40.7992 20.4751C40.7992 18.6711 40.0927 16.7883 38.6075 15.3983C36.8889 13.7915 34.6874 13.2066 32.5679 13.5812C32.3675 13.6173 32.1605 13.6765 31.9568 13.7488V10.6502C31.9568 10.5976 31.9469 10.5187 31.9206 10.4497C31.3686 8.95133 29.7059 4.45948 29.7059 4.45948V2.76723C29.7059 1.69273 28.8319 0.82196 27.7606 0.82196H12.1262C11.0517 0.82196 10.181 1.69602 10.181 2.76723V4.45948L7.96624 10.4497C7.94653 10.5023 7.9301 10.5746 7.9301 10.6502V24.3689C7.38463 24.8256 6.9016 25.4335 6.50401 26.1137C5.84354 25.4467 5.11406 25.0951 4.36487 25.0951C2.00229 25.0951 0.224609 28.6439 0.224609 30.944C0.224609 33.2442 2.08773 35.0941 4.37473 35.0941H4.36816ZM15.7144 33.9441C15.0113 33.9441 14.3409 33.6943 13.8086 33.254C14.4461 32.4391 14.8305 31.4172 14.8305 30.3065C14.8305 29.4456 14.5709 28.3218 14.1109 27.2375C14.4757 26.7873 15.0474 26.2451 15.7046 26.2451C16.7528 26.2451 17.755 27.5792 18.2972 28.9889C18.2972 28.9955 18.3005 29.002 18.3038 29.0053C18.5601 29.6789 18.7145 30.3723 18.7145 30.9407C18.7145 32.5968 17.3673 33.9408 15.7144 33.9408V33.9441ZM9.0736 11.2252H12.4252V14.3862H9.0736V11.2252ZM28.7267 5.13966L30.5537 10.0751H13.4012L11.5742 5.13966H28.7267ZM28.2141 18.6908C28.2141 19.6864 27.4058 20.4948 26.4101 20.4948C26.1571 20.4948 25.914 20.4389 25.6905 20.3403L28.0991 18.0566C28.1747 18.2571 28.2141 18.4739 28.2141 18.6908ZM28.5624 16.0325C28.5624 16.0325 19.0858 25.0129 18.4385 25.6307C18.3465 25.7194 18.2578 25.864 18.2578 26.048V26.5672C17.8864 26.1006 17.4593 25.7128 16.996 25.45C17.2227 25.3744 17.387 25.1608 17.387 24.9078C17.387 24.589 17.1307 24.3327 16.8119 24.3327H15.5239C15.2051 24.3327 14.9488 24.589 14.9488 24.9078C14.9488 25.0129 14.9784 25.1082 15.0277 25.1937C14.5217 25.3382 14.0321 25.6471 13.5786 26.1104V15.5396H29.1177C28.8549 15.7631 28.6577 15.9438 28.5657 16.0325H28.5624ZM34.7827 33.9408C34.947 33.1127 35.6797 32.4884 36.5538 32.4884C37.0828 32.4884 37.5724 32.7184 37.9109 33.1062C37.3161 33.6089 36.074 33.9408 35.2033 33.9408H34.7827ZM39.6491 28.9429C39.6491 30.1258 39.2975 31.2562 38.6502 32.2157C38.1047 31.6636 37.3555 31.3383 36.5538 31.3383C35.0455 31.3383 33.7969 32.4753 33.6227 33.9408H20.4692C19.8876 33.9408 19.4111 33.4676 19.4111 32.8827V32.8334C19.7036 32.265 19.8711 31.6242 19.8711 30.9407C19.8711 30.2573 19.7068 29.4325 19.4111 28.6373V26.6197H36.4388V29.8137C36.4388 30.1324 36.6951 30.3887 37.0138 30.3887C37.3325 30.3887 37.5888 30.1324 37.5888 29.8137V26.3569C38.4366 25.8114 39.1332 25.1082 39.6557 24.3065C39.6557 25.8508 39.6557 27.3952 39.6557 28.9363L39.6491 28.9429ZM30.4025 25.4762C30.6983 24.8815 31.3127 24.4806 32.0159 24.4806C32.7191 24.4806 33.3336 24.8815 33.6293 25.4762H30.4025ZM39.59 19.6634C39.406 19.7259 39.2154 19.7587 39.0215 19.7587C38.0259 19.7587 37.2175 18.9504 37.2175 17.9548C37.2175 17.3337 37.5297 16.7751 38.0357 16.4465C38.3512 16.7784 38.6338 17.1464 38.8671 17.5539C39.2548 18.2242 39.4914 18.9373 39.59 19.6602V19.6634ZM37.1354 15.6809C36.4683 16.2297 36.0675 17.0544 36.0675 17.9548C36.0675 19.5846 37.395 20.9088 39.0215 20.9088C39.2285 20.9088 39.4355 20.8792 39.6393 20.8365C39.5242 22.6832 38.5385 24.4445 36.8528 25.4762H34.8615C34.5099 24.221 33.3664 23.3305 32.0192 23.3305C30.672 23.3305 29.5318 24.2243 29.1769 25.4762H20.2786L24.8132 21.1783C25.2863 21.4838 25.8384 21.6481 26.4134 21.6481C28.0432 21.6481 29.3675 20.3239 29.3675 18.6941C29.3675 18.1782 29.2295 17.6722 28.9764 17.2286L29.3543 16.8704C30.0411 16.2198 30.8593 15.5889 31.7169 15.119C33.3796 14.2088 35.591 14.6097 37.1354 15.6809ZM30.6785 14.3928H13.5786V11.2318H30.8067V14.3172C30.764 14.3435 30.7213 14.3665 30.6785 14.3928ZM27.7541 1.97203C28.1944 1.97203 28.5493 2.3302 28.5493 2.76723V3.98959H11.3212V2.76723C11.3212 2.32691 11.6793 1.97203 12.1164 1.97203H27.7541ZM10.7494 6.22402L12.1755 10.0784H9.32662L10.7527 6.22402H10.7494ZM9.0736 15.5396H12.4252V24.6449C11.7352 23.9614 10.9236 23.5178 10.0298 23.5178C9.70121 23.5178 9.38248 23.5803 9.0736 23.6887V15.5396ZM10.0298 24.6679C11.9126 24.6679 13.6805 28.1871 13.6805 30.3065C13.6805 32.3142 12.0474 33.9441 10.0429 33.9441C8.03853 33.9441 6.40543 32.311 6.40543 30.3065C6.40543 28.1871 8.1634 24.6679 10.0331 24.6679H10.0298ZM4.3583 26.2451C5.00563 26.2451 5.57738 26.7742 5.94212 27.2178C5.5018 28.266 5.25207 29.3733 5.25207 30.3033C5.25207 31.4172 5.63652 32.4391 6.27399 33.2507C5.74167 33.691 5.06806 33.9408 4.36816 33.9408C2.71205 33.9408 1.36811 32.5935 1.36811 30.9407C1.36811 29.1729 2.8172 26.2419 4.3583 26.2419V26.2451Z"/>
<path d="M10.0429 33.2704C10.3617 33.2704 10.618 33.0141 10.618 32.6954C10.618 32.3767 10.3617 32.1204 10.0429 32.1204C9.02431 32.1204 8.22912 31.3219 8.22912 30.3065C8.22912 29.9878 7.97282 29.7315 7.65408 29.7315C7.33535 29.7315 7.07904 29.9878 7.07904 30.3065C7.07904 31.9692 8.38027 33.2704 10.0429 33.2704Z"/>
</mask>
<path d="M25.053 28.9593C23.9785 28.9593 23.1045 29.8334 23.1045 30.9079C23.1045 31.9824 23.9785 32.8564 25.053 32.8564C26.1275 32.8564 27.0016 31.9824 27.0016 30.9079C27.0016 29.8334 26.1275 28.9593 25.053 28.9593ZM25.053 31.7063C24.6127 31.7063 24.2546 31.3482 24.2546 30.9079C24.2546 30.4676 24.6127 30.1094 25.053 30.1094C25.4934 30.1094 25.8515 30.4676 25.8515 30.9079C25.8515 31.3482 25.4934 31.7063 25.053 31.7063Z" fill="#1E1E1E"/>
<path d="M21.0639 17.4586H15.5206C15.2018 17.4586 14.9455 17.7149 14.9455 18.0336C14.9455 18.3524 15.2018 18.6087 15.5206 18.6087H21.0639C21.3827 18.6087 21.639 18.3524 21.639 18.0336C21.639 17.7149 21.3827 17.4586 21.0639 17.4586Z" fill="#1E1E1E"/>
<path d="M21.0639 19.7522H15.5206C15.2018 19.7522 14.9455 20.0085 14.9455 20.3272C14.9455 20.6459 15.2018 20.9022 15.5206 20.9022H21.0639C21.3827 20.9022 21.639 20.6459 21.639 20.3272C21.639 20.0085 21.3827 19.7522 21.0639 19.7522Z" fill="#1E1E1E"/>
<path d="M18.1263 22.0424H15.5239C15.2051 22.0424 14.9488 22.2988 14.9488 22.6175C14.9488 22.9362 15.2051 23.1925 15.5239 23.1925H18.1263C18.445 23.1925 18.7014 22.9362 18.7014 22.6175C18.7014 22.2988 18.445 22.0424 18.1263 22.0424Z" fill="#1E1E1E"/>
<path d="M14.3639 7.27223H16.8645C17.1833 7.27223 17.4396 7.01592 17.4396 6.69719C17.4396 6.37846 17.1833 6.12215 16.8645 6.12215H14.3639C14.0452 6.12215 13.7889 6.37846 13.7889 6.69719C13.7889 7.01592 14.0452 7.27223 14.3639 7.27223Z" fill="#1E1E1E"/>
<path d="M4.36816 35.0941C5.37694 35.0941 6.33971 34.7228 7.09219 34.0689C7.9071 34.7097 8.92902 35.0941 10.0429 35.0941C11.1569 35.0941 12.1788 34.7097 12.9937 34.0689C13.7462 34.7228 14.709 35.0941 15.7177 35.0941C16.8119 35.0941 17.8043 34.667 18.5469 33.9703C18.9281 34.6374 19.6444 35.0909 20.4659 35.0909H35.2033C38.8671 35.0909 40.7992 32.0514 40.7992 28.9429C40.7992 26.462 40.7992 23.8793 40.7992 20.4751C40.7992 18.6711 40.0927 16.7883 38.6075 15.3983C36.8889 13.7915 34.6874 13.2066 32.5679 13.5812C32.3675 13.6173 32.1605 13.6765 31.9568 13.7488V10.6502C31.9568 10.5976 31.9469 10.5187 31.9206 10.4497C31.3686 8.95133 29.7059 4.45948 29.7059 4.45948V2.76723C29.7059 1.69273 28.8319 0.82196 27.7606 0.82196H12.1262C11.0517 0.82196 10.181 1.69602 10.181 2.76723V4.45948L7.96624 10.4497C7.94653 10.5023 7.9301 10.5746 7.9301 10.6502V24.3689C7.38463 24.8256 6.9016 25.4335 6.50401 26.1137C5.84354 25.4467 5.11406 25.0951 4.36487 25.0951C2.00229 25.0951 0.224609 28.6439 0.224609 30.944C0.224609 33.2442 2.08773 35.0941 4.37473 35.0941H4.36816ZM15.7144 33.9441C15.0113 33.9441 14.3409 33.6943 13.8086 33.254C14.4461 32.4391 14.8305 31.4172 14.8305 30.3065C14.8305 29.4456 14.5709 28.3218 14.1109 27.2375C14.4757 26.7873 15.0474 26.2451 15.7046 26.2451C16.7528 26.2451 17.755 27.5792 18.2972 28.9889C18.2972 28.9955 18.3005 29.002 18.3038 29.0053C18.5601 29.6789 18.7145 30.3723 18.7145 30.9407C18.7145 32.5968 17.3673 33.9408 15.7144 33.9408V33.9441ZM9.0736 11.2252H12.4252V14.3862H9.0736V11.2252ZM28.7267 5.13966L30.5537 10.0751H13.4012L11.5742 5.13966H28.7267ZM28.2141 18.6908C28.2141 19.6864 27.4058 20.4948 26.4101 20.4948C26.1571 20.4948 25.914 20.4389 25.6905 20.3403L28.0991 18.0566C28.1747 18.2571 28.2141 18.4739 28.2141 18.6908ZM28.5624 16.0325C28.5624 16.0325 19.0858 25.0129 18.4385 25.6307C18.3465 25.7194 18.2578 25.864 18.2578 26.048V26.5672C17.8864 26.1006 17.4593 25.7128 16.996 25.45C17.2227 25.3744 17.387 25.1608 17.387 24.9078C17.387 24.589 17.1307 24.3327 16.8119 24.3327H15.5239C15.2051 24.3327 14.9488 24.589 14.9488 24.9078C14.9488 25.0129 14.9784 25.1082 15.0277 25.1937C14.5217 25.3382 14.0321 25.6471 13.5786 26.1104V15.5396H29.1177C28.8549 15.7631 28.6577 15.9438 28.5657 16.0325H28.5624ZM34.7827 33.9408C34.947 33.1127 35.6797 32.4884 36.5538 32.4884C37.0828 32.4884 37.5724 32.7184 37.9109 33.1062C37.3161 33.6089 36.074 33.9408 35.2033 33.9408H34.7827ZM39.6491 28.9429C39.6491 30.1258 39.2975 31.2562 38.6502 32.2157C38.1047 31.6636 37.3555 31.3383 36.5538 31.3383C35.0455 31.3383 33.7969 32.4753 33.6227 33.9408H20.4692C19.8876 33.9408 19.4111 33.4676 19.4111 32.8827V32.8334C19.7036 32.265 19.8711 31.6242 19.8711 30.9407C19.8711 30.2573 19.7068 29.4325 19.4111 28.6373V26.6197H36.4388V29.8137C36.4388 30.1324 36.6951 30.3887 37.0138 30.3887C37.3325 30.3887 37.5888 30.1324 37.5888 29.8137V26.3569C38.4366 25.8114 39.1332 25.1082 39.6557 24.3065C39.6557 25.8508 39.6557 27.3952 39.6557 28.9363L39.6491 28.9429ZM30.4025 25.4762C30.6983 24.8815 31.3127 24.4806 32.0159 24.4806C32.7191 24.4806 33.3336 24.8815 33.6293 25.4762H30.4025ZM39.59 19.6634C39.406 19.7259 39.2154 19.7587 39.0215 19.7587C38.0259 19.7587 37.2175 18.9504 37.2175 17.9548C37.2175 17.3337 37.5297 16.7751 38.0357 16.4465C38.3512 16.7784 38.6338 17.1464 38.8671 17.5539C39.2548 18.2242 39.4914 18.9373 39.59 19.6602V19.6634ZM37.1354 15.6809C36.4683 16.2297 36.0675 17.0544 36.0675 17.9548C36.0675 19.5846 37.395 20.9088 39.0215 20.9088C39.2285 20.9088 39.4355 20.8792 39.6393 20.8365C39.5242 22.6832 38.5385 24.4445 36.8528 25.4762H34.8615C34.5099 24.221 33.3664 23.3305 32.0192 23.3305C30.672 23.3305 29.5318 24.2243 29.1769 25.4762H20.2786L24.8132 21.1783C25.2863 21.4838 25.8384 21.6481 26.4134 21.6481C28.0432 21.6481 29.3675 20.3239 29.3675 18.6941C29.3675 18.1782 29.2295 17.6722 28.9764 17.2286L29.3543 16.8704C30.0411 16.2198 30.8593 15.5889 31.7169 15.119C33.3796 14.2088 35.591 14.6097 37.1354 15.6809ZM30.6785 14.3928H13.5786V11.2318H30.8067V14.3172C30.764 14.3435 30.7213 14.3665 30.6785 14.3928ZM27.7541 1.97203C28.1944 1.97203 28.5493 2.3302 28.5493 2.76723V3.98959H11.3212V2.76723C11.3212 2.32691 11.6793 1.97203 12.1164 1.97203H27.7541ZM10.7494 6.22402L12.1755 10.0784H9.32662L10.7527 6.22402H10.7494ZM9.0736 15.5396H12.4252V24.6449C11.7352 23.9614 10.9236 23.5178 10.0298 23.5178C9.70121 23.5178 9.38248 23.5803 9.0736 23.6887V15.5396ZM10.0298 24.6679C11.9126 24.6679 13.6805 28.1871 13.6805 30.3065C13.6805 32.3142 12.0474 33.9441 10.0429 33.9441C8.03853 33.9441 6.40543 32.311 6.40543 30.3065C6.40543 28.1871 8.1634 24.6679 10.0331 24.6679H10.0298ZM4.3583 26.2451C5.00563 26.2451 5.57738 26.7742 5.94212 27.2178C5.5018 28.266 5.25207 29.3733 5.25207 30.3033C5.25207 31.4172 5.63652 32.4391 6.27399 33.2507C5.74167 33.691 5.06806 33.9408 4.36816 33.9408C2.71205 33.9408 1.36811 32.5935 1.36811 30.9407C1.36811 29.1729 2.8172 26.2419 4.3583 26.2419V26.2451Z" fill="#1E1E1E"/>
<path d="M10.0429 33.2704C10.3617 33.2704 10.618 33.0141 10.618 32.6954C10.618 32.3767 10.3617 32.1204 10.0429 32.1204C9.02431 32.1204 8.22912 31.3219 8.22912 30.3065C8.22912 29.9878 7.97282 29.7315 7.65408 29.7315C7.33535 29.7315 7.07904 29.9878 7.07904 30.3065C7.07904 31.9692 8.38027 33.2704 10.0429 33.2704Z" fill="#1E1E1E"/>
<path d="M25.053 28.9593C23.9785 28.9593 23.1045 29.8334 23.1045 30.9079C23.1045 31.9824 23.9785 32.8564 25.053 32.8564C26.1275 32.8564 27.0016 31.9824 27.0016 30.9079C27.0016 29.8334 26.1275 28.9593 25.053 28.9593ZM25.053 31.7063C24.6127 31.7063 24.2546 31.3482 24.2546 30.9079C24.2546 30.4676 24.6127 30.1094 25.053 30.1094C25.4934 30.1094 25.8515 30.4676 25.8515 30.9079C25.8515 31.3482 25.4934 31.7063 25.053 31.7063Z" stroke="#1E1E1E" stroke-width="14.6092" mask="url(#path-1-inside-1_2368_182)"/>
<path d="M21.0639 17.4586H15.5206C15.2018 17.4586 14.9455 17.7149 14.9455 18.0336C14.9455 18.3524 15.2018 18.6087 15.5206 18.6087H21.0639C21.3827 18.6087 21.639 18.3524 21.639 18.0336C21.639 17.7149 21.3827 17.4586 21.0639 17.4586Z" stroke="#1E1E1E" stroke-width="14.6092" mask="url(#path-1-inside-1_2368_182)"/>
<path d="M21.0639 19.7522H15.5206C15.2018 19.7522 14.9455 20.0085 14.9455 20.3272C14.9455 20.6459 15.2018 20.9022 15.5206 20.9022H21.0639C21.3827 20.9022 21.639 20.6459 21.639 20.3272C21.639 20.0085 21.3827 19.7522 21.0639 19.7522Z" stroke="#1E1E1E" stroke-width="14.6092" mask="url(#path-1-inside-1_2368_182)"/>
<path d="M18.1263 22.0424H15.5239C15.2051 22.0424 14.9488 22.2988 14.9488 22.6175C14.9488 22.9362 15.2051 23.1925 15.5239 23.1925H18.1263C18.445 23.1925 18.7014 22.9362 18.7014 22.6175C18.7014 22.2988 18.445 22.0424 18.1263 22.0424Z" stroke="#1E1E1E" stroke-width="14.6092" mask="url(#path-1-inside-1_2368_182)"/>
<path d="M14.3639 7.27223H16.8645C17.1833 7.27223 17.4396 7.01592 17.4396 6.69719C17.4396 6.37846 17.1833 6.12215 16.8645 6.12215H14.3639C14.0452 6.12215 13.7889 6.37846 13.7889 6.69719C13.7889 7.01592 14.0452 7.27223 14.3639 7.27223Z" stroke="#1E1E1E" stroke-width="14.6092" mask="url(#path-1-inside-1_2368_182)"/>
<path d="M4.36816 35.0941C5.37694 35.0941 6.33971 34.7228 7.09219 34.0689C7.9071 34.7097 8.92902 35.0941 10.0429 35.0941C11.1569 35.0941 12.1788 34.7097 12.9937 34.0689C13.7462 34.7228 14.709 35.0941 15.7177 35.0941C16.8119 35.0941 17.8043 34.667 18.5469 33.9703C18.9281 34.6374 19.6444 35.0909 20.4659 35.0909H35.2033C38.8671 35.0909 40.7992 32.0514 40.7992 28.9429C40.7992 26.462 40.7992 23.8793 40.7992 20.4751C40.7992 18.6711 40.0927 16.7883 38.6075 15.3983C36.8889 13.7915 34.6874 13.2066 32.5679 13.5812C32.3675 13.6173 32.1605 13.6765 31.9568 13.7488V10.6502C31.9568 10.5976 31.9469 10.5187 31.9206 10.4497C31.3686 8.95133 29.7059 4.45948 29.7059 4.45948V2.76723C29.7059 1.69273 28.8319 0.82196 27.7606 0.82196H12.1262C11.0517 0.82196 10.181 1.69602 10.181 2.76723V4.45948L7.96624 10.4497C7.94653 10.5023 7.9301 10.5746 7.9301 10.6502V24.3689C7.38463 24.8256 6.9016 25.4335 6.50401 26.1137C5.84354 25.4467 5.11406 25.0951 4.36487 25.0951C2.00229 25.0951 0.224609 28.6439 0.224609 30.944C0.224609 33.2442 2.08773 35.0941 4.37473 35.0941H4.36816ZM15.7144 33.9441C15.0113 33.9441 14.3409 33.6943 13.8086 33.254C14.4461 32.4391 14.8305 31.4172 14.8305 30.3065C14.8305 29.4456 14.5709 28.3218 14.1109 27.2375C14.4757 26.7873 15.0474 26.2451 15.7046 26.2451C16.7528 26.2451 17.755 27.5792 18.2972 28.9889C18.2972 28.9955 18.3005 29.002 18.3038 29.0053C18.5601 29.6789 18.7145 30.3723 18.7145 30.9407C18.7145 32.5968 17.3673 33.9408 15.7144 33.9408V33.9441ZM9.0736 11.2252H12.4252V14.3862H9.0736V11.2252ZM28.7267 5.13966L30.5537 10.0751H13.4012L11.5742 5.13966H28.7267ZM28.2141 18.6908C28.2141 19.6864 27.4058 20.4948 26.4101 20.4948C26.1571 20.4948 25.914 20.4389 25.6905 20.3403L28.0991 18.0566C28.1747 18.2571 28.2141 18.4739 28.2141 18.6908ZM28.5624 16.0325C28.5624 16.0325 19.0858 25.0129 18.4385 25.6307C18.3465 25.7194 18.2578 25.864 18.2578 26.048V26.5672C17.8864 26.1006 17.4593 25.7128 16.996 25.45C17.2227 25.3744 17.387 25.1608 17.387 24.9078C17.387 24.589 17.1307 24.3327 16.8119 24.3327H15.5239C15.2051 24.3327 14.9488 24.589 14.9488 24.9078C14.9488 25.0129 14.9784 25.1082 15.0277 25.1937C14.5217 25.3382 14.0321 25.6471 13.5786 26.1104V15.5396H29.1177C28.8549 15.7631 28.6577 15.9438 28.5657 16.0325H28.5624ZM34.7827 33.9408C34.947 33.1127 35.6797 32.4884 36.5538 32.4884C37.0828 32.4884 37.5724 32.7184 37.9109 33.1062C37.3161 33.6089 36.074 33.9408 35.2033 33.9408H34.7827ZM39.6491 28.9429C39.6491 30.1258 39.2975 31.2562 38.6502 32.2157C38.1047 31.6636 37.3555 31.3383 36.5538 31.3383C35.0455 31.3383 33.7969 32.4753 33.6227 33.9408H20.4692C19.8876 33.9408 19.4111 33.4676 19.4111 32.8827V32.8334C19.7036 32.265 19.8711 31.6242 19.8711 30.9407C19.8711 30.2573 19.7068 29.4325 19.4111 28.6373V26.6197H36.4388V29.8137C36.4388 30.1324 36.6951 30.3887 37.0138 30.3887C37.3325 30.3887 37.5888 30.1324 37.5888 29.8137V26.3569C38.4366 25.8114 39.1332 25.1082 39.6557 24.3065C39.6557 25.8508 39.6557 27.3952 39.6557 28.9363L39.6491 28.9429ZM30.4025 25.4762C30.6983 24.8815 31.3127 24.4806 32.0159 24.4806C32.7191 24.4806 33.3336 24.8815 33.6293 25.4762H30.4025ZM39.59 19.6634C39.406 19.7259 39.2154 19.7587 39.0215 19.7587C38.0259 19.7587 37.2175 18.9504 37.2175 17.9548C37.2175 17.3337 37.5297 16.7751 38.0357 16.4465C38.3512 16.7784 38.6338 17.1464 38.8671 17.5539C39.2548 18.2242 39.4914 18.9373 39.59 19.6602V19.6634ZM37.1354 15.6809C36.4683 16.2297 36.0675 17.0544 36.0675 17.9548C36.0675 19.5846 37.395 20.9088 39.0215 20.9088C39.2285 20.9088 39.4355 20.8792 39.6393 20.8365C39.5242 22.6832 38.5385 24.4445 36.8528 25.4762H34.8615C34.5099 24.221 33.3664 23.3305 32.0192 23.3305C30.672 23.3305 29.5318 24.2243 29.1769 25.4762H20.2786L24.8132 21.1783C25.2863 21.4838 25.8384 21.6481 26.4134 21.6481C28.0432 21.6481 29.3675 20.3239 29.3675 18.6941C29.3675 18.1782 29.2295 17.6722 28.9764 17.2286L29.3543 16.8704C30.0411 16.2198 30.8593 15.5889 31.7169 15.119C33.3796 14.2088 35.591 14.6097 37.1354 15.6809ZM30.6785 14.3928H13.5786V11.2318H30.8067V14.3172C30.764 14.3435 30.7213 14.3665 30.6785 14.3928ZM27.7541 1.97203C28.1944 1.97203 28.5493 2.3302 28.5493 2.76723V3.98959H11.3212V2.76723C11.3212 2.32691 11.6793 1.97203 12.1164 1.97203H27.7541ZM10.7494 6.22402L12.1755 10.0784H9.32662L10.7527 6.22402H10.7494ZM9.0736 15.5396H12.4252V24.6449C11.7352 23.9614 10.9236 23.5178 10.0298 23.5178C9.70121 23.5178 9.38248 23.5803 9.0736 23.6887V15.5396ZM10.0298 24.6679C11.9126 24.6679 13.6805 28.1871 13.6805 30.3065C13.6805 32.3142 12.0474 33.9441 10.0429 33.9441C8.03853 33.9441 6.40543 32.311 6.40543 30.3065C6.40543 28.1871 8.1634 24.6679 10.0331 24.6679H10.0298ZM4.3583 26.2451C5.00563 26.2451 5.57738 26.7742 5.94212 27.2178C5.5018 28.266 5.25207 29.3733 5.25207 30.3033C5.25207 31.4172 5.63652 32.4391 6.27399 33.2507C5.74167 33.691 5.06806 33.9408 4.36816 33.9408C2.71205 33.9408 1.36811 32.5935 1.36811 30.9407C1.36811 29.1729 2.8172 26.2419 4.3583 26.2419V26.2451Z" stroke="#1E1E1E" stroke-width="14.6092" mask="url(#path-1-inside-1_2368_182)"/>
<path d="M10.0429 33.2704C10.3617 33.2704 10.618 33.0141 10.618 32.6954C10.618 32.3767 10.3617 32.1204 10.0429 32.1204C9.02431 32.1204 8.22912 31.3219 8.22912 30.3065C8.22912 29.9878 7.97282 29.7315 7.65408 29.7315C7.33535 29.7315 7.07904 29.9878 7.07904 30.3065C7.07904 31.9692 8.38027 33.2704 10.0429 33.2704Z" stroke="#1E1E1E" stroke-width="14.6092" mask="url(#path-1-inside-1_2368_182)"/>
</g>
<defs>
<clipPath id="clip0_2368_182">
<rect width="40.5811" height="34.2722" fill="white" transform="translate(0.21875 0.82196)"/>
</clipPath>
</defs>
</svg>
