<svg width="44" height="44" viewBox="0 0 44 44" fill="none" xmlns="http://www.w3.org/2000/svg">
<path d="M42.5308 42.2782H38.2125V40.5508H39.0761C41.4599 40.5508 43.3945 38.6162 43.3945 36.2325C43.3945 35.7574 43.0059 35.3688 42.5308 35.3688H40.8035C39.793 35.3688 38.8689 35.7315 38.1347 36.3188C37.7634 34.3065 36.0101 32.7778 33.8941 32.7778H32.1668C31.6918 32.7778 31.3031 33.1664 31.3031 33.6414C31.3031 36.0252 33.2377 37.9598 35.6215 37.9598H36.4851V42.2782H22.6664V40.5508H23.5301C25.9138 40.5508 27.8484 38.6162 27.8484 36.2325C27.8484 35.7574 27.4598 35.3688 26.9847 35.3688H25.2574C24.2469 35.3688 23.3228 35.7315 22.5887 36.3188C22.2173 34.3065 20.464 32.7778 18.348 32.7778H16.6207C16.1457 32.7778 15.757 33.1664 15.757 33.6414C15.757 36.0252 17.6916 37.9598 20.0754 37.9598H20.9391V42.2782H7.12031V40.5508H7.98398C10.3677 40.5508 12.3023 38.6162 12.3023 36.2325C12.3023 35.7574 11.9137 35.3688 11.4387 35.3688H9.71132C8.70083 35.3688 7.7767 35.7315 7.04258 36.3188C6.6712 34.3065 4.91795 32.7778 2.80195 32.7778H1.07461C0.59959 32.7778 0.210938 33.1664 0.210938 33.6414C0.210938 36.0252 2.14556 37.9598 4.52929 37.9598H5.39297V42.2782H1.07461C0.59959 42.2782 0.210938 42.6668 0.210938 43.1418C0.210938 43.6168 0.59959 44.0055 1.07461 44.0055H42.5308C43.0059 44.0055 43.3945 43.6168 43.3945 43.1418C43.3945 42.6668 43.0059 42.2782 42.5308 42.2782ZM40.8035 37.0961H41.5203C41.1662 38.098 40.1989 38.8235 39.0761 38.8235H38.3593C38.7134 37.8216 39.6807 37.0961 40.8035 37.0961ZM35.6215 36.2325C34.4987 36.2325 33.5314 35.507 33.1773 34.5051H33.8941C35.0169 34.5051 35.9842 35.2306 36.3383 36.2325H35.6215ZM25.2574 37.0961H25.9743C25.6201 38.098 24.6528 38.8235 23.5301 38.8235H22.8132C23.1673 37.8216 24.1346 37.0961 25.2574 37.0961ZM20.0754 36.2325C18.9526 36.2325 17.9853 35.507 17.6312 34.5051H18.348C19.4708 34.5051 20.4381 35.2306 20.7922 36.2325H20.0754ZM9.71132 37.0961H10.4282C10.0741 38.098 9.10675 38.8235 7.98398 38.8235H7.26713C7.62124 37.8216 8.58855 37.0961 9.71132 37.0961ZM4.52929 36.2325C3.40652 36.2325 2.43921 35.507 2.0851 34.5051H2.80195C3.92472 34.5051 4.89204 35.2306 5.24614 36.2325H4.52929Z" fill="#1E1E1E"/>
<path d="M29.5758 29.3231H25.2574V25.0048H26.9848C27.4598 25.0048 27.8484 24.6161 27.8484 24.1411V20.6864C27.8484 20.2114 27.4598 19.8228 26.9848 19.8228H25.2574V18.9591C25.2574 17.0504 23.7114 15.5044 21.8027 15.5044C19.894 15.5044 18.348 17.0504 18.348 18.9591V19.8228H16.6207C16.1457 19.8228 15.757 20.2114 15.757 20.6864V24.1411C15.757 24.6161 16.1457 25.0048 16.6207 25.0048H18.348V29.3231H14.0297C13.5547 29.3231 13.166 29.7118 13.166 30.1868C13.166 30.6618 13.5547 31.0505 14.0297 31.0505H29.5758C30.0508 31.0505 30.4394 30.6618 30.4394 30.1868C30.4394 29.7118 30.0508 29.3231 29.5758 29.3231ZM20.0754 18.9591C20.0754 18.009 20.8527 17.2317 21.8027 17.2317C22.7528 17.2317 23.5301 18.009 23.5301 18.9591V19.8228H20.0754V18.9591ZM23.5301 29.3231H20.0754V25.0048H23.5301V29.3231ZM17.4844 23.2774V21.5501H26.1211V23.2774H17.4844Z" fill="#1E1E1E"/>
<path d="M21.8012 13.777C22.2762 13.777 22.6648 13.3884 22.6648 12.9133V11.186C22.6648 10.711 22.2762 10.3223 21.8012 10.3223C21.3262 10.3223 20.9375 10.711 20.9375 11.186V12.9133C20.9375 13.3884 21.3262 13.777 21.8012 13.777Z" fill="#1E1E1E"/>
<path d="M21.8012 8.59501C22.2762 8.59501 22.6648 8.20635 22.6648 7.73133V6.00399C22.6648 5.52897 22.2762 5.14032 21.8012 5.14032C21.3262 5.14032 20.9375 5.52897 20.9375 6.00399V7.73133C20.9375 8.20635 21.3262 8.59501 21.8012 8.59501Z" fill="#1E1E1E"/>
<path d="M21.8012 4.27665C22.2762 4.27665 22.6648 3.88799 22.6648 3.41297V1.68563C22.6648 1.21061 22.2762 0.82196 21.8012 0.82196C21.3262 0.82196 20.9375 1.21061 20.9375 1.68563V3.41297C20.9375 3.88799 21.3262 4.27665 21.8012 4.27665Z" fill="#1E1E1E"/>
<path d="M27.908 16.3077C28.1325 16.3077 28.3484 16.2213 28.5212 16.0572L29.739 14.8394C30.0758 14.5026 30.0758 13.9585 29.739 13.6216C29.4021 13.2848 28.858 13.2848 28.5212 13.6216L27.3034 14.8394C26.9666 15.1763 26.9666 15.7204 27.3034 16.0572C27.4675 16.2213 27.6921 16.3077 27.9166 16.3077H27.908Z" fill="#1E1E1E"/>
<path d="M31.572 12.6457C31.7966 12.6457 32.0125 12.5593 32.1852 12.3952L33.403 11.1774C33.7399 10.8406 33.7399 10.2965 33.403 9.95966C33.0662 9.62282 32.5221 9.62282 32.1852 9.95966L30.9675 11.1774C30.6306 11.5143 30.6306 12.0584 30.9675 12.3952C31.1316 12.5593 31.3561 12.6457 31.5807 12.6457H31.572Z" fill="#1E1E1E"/>
<path d="M34.6287 9.5883C34.8532 9.5883 35.0692 9.50193 35.2419 9.33784L36.4597 8.12006C36.7965 7.78323 36.7965 7.23911 36.4597 6.90228C36.1228 6.56545 35.5787 6.56545 35.2419 6.90228L34.0241 8.12006C33.6873 8.45689 33.6873 9.001 34.0241 9.33784C34.1882 9.50193 34.4128 9.5883 34.6373 9.5883H34.6287Z" fill="#1E1E1E"/>
<path d="M29.5762 21.5501C29.5762 22.0251 29.9648 22.4137 30.4398 22.4137H32.1672C32.6422 22.4137 33.0309 22.0251 33.0309 21.5501C33.0309 21.0751 32.6422 20.6864 32.1672 20.6864H30.4398C29.9648 20.6864 29.5762 21.0751 29.5762 21.5501Z" fill="#1E1E1E"/>
<path d="M34.7578 21.5501C34.7578 22.0251 35.1465 22.4137 35.6215 22.4137H37.3488C37.8238 22.4137 38.2125 22.0251 38.2125 21.5501C38.2125 21.0751 37.8238 20.6864 37.3488 20.6864H35.6215C35.1465 20.6864 34.7578 21.0751 34.7578 21.5501Z" fill="#1E1E1E"/>
<path d="M39.9398 22.4137H41.6672C42.1422 22.4137 42.5309 22.0251 42.5309 21.5501C42.5309 21.0751 42.1422 20.6864 41.6672 20.6864H39.9398C39.4648 20.6864 39.0762 21.0751 39.0762 21.5501C39.0762 22.0251 39.4648 22.4137 39.9398 22.4137Z" fill="#1E1E1E"/>
<path d="M15.947 16.0572C16.2838 16.394 16.8365 16.394 17.1647 16.0572C17.5016 15.7204 17.5016 15.1763 17.1647 14.8394L15.947 13.6216C15.6101 13.2848 15.066 13.2848 14.7292 13.6216C14.3924 13.9585 14.3924 14.5026 14.7292 14.8394L15.947 16.0572Z" fill="#1E1E1E"/>
<path d="M12.2849 12.3866C12.6217 12.7234 13.1658 12.7234 13.5026 12.3866C13.8395 12.0498 13.8395 11.5057 13.5026 11.1688L12.2849 9.95105C11.948 9.61422 11.4039 9.61422 11.0671 9.95105C10.7302 10.2879 10.7302 10.832 11.0671 11.1688L12.2849 12.3866Z" fill="#1E1E1E"/>
<path d="M9.22821 9.33783C9.53913 9.64876 10.1092 9.67467 10.446 9.33783C10.7828 9.001 10.7828 8.45689 10.446 8.12006L9.22821 6.90228C8.89138 6.56545 8.34727 6.56545 8.01044 6.90228C7.6736 7.23911 7.6736 7.78323 8.01044 8.12006L9.22821 9.33783Z" fill="#1E1E1E"/>
<path d="M11.4375 21.5501C11.4375 22.0251 11.8262 22.4137 12.3012 22.4137H14.0285C14.5035 22.4137 14.8922 22.0251 14.8922 21.5501C14.8922 21.0751 14.5035 20.6864 14.0285 20.6864H12.3012C11.8262 20.6864 11.4375 21.0751 11.4375 21.5501Z" fill="#1E1E1E"/>
<path d="M7.12148 22.4137H8.84883C9.32385 22.4137 9.7125 22.0251 9.7125 21.5501C9.7125 21.0751 9.32385 20.6864 8.84883 20.6864H7.12148C6.64646 20.6864 6.25781 21.0751 6.25781 21.5501C6.25781 22.0251 6.64646 22.4137 7.12148 22.4137Z" fill="#1E1E1E"/>
<path d="M2.80312 22.4137H4.53047C5.00549 22.4137 5.39414 22.0251 5.39414 21.5501C5.39414 21.0751 5.00549 20.6864 4.53047 20.6864H2.80312C2.32811 20.6864 1.93945 21.0751 1.93945 21.5501C1.93945 22.0251 2.32811 22.4137 2.80312 22.4137Z" fill="#1E1E1E"/>
</svg>
