<svg width="40" height="41" viewBox="0 0 40 41" fill="none" xmlns="http://www.w3.org/2000/svg">
<path d="M20.7051 0.0941162C21.103 0.209242 21.5149 0.291475 21.8967 0.444194C22.5214 0.693242 22.887 1.13965 22.8384 1.8727C22.8176 2.17344 22.8593 2.48122 22.8986 2.77961C23.0073 3.59254 23.4354 4.07654 24.2337 4.21986C25.231 4.39843 26.2421 4.5112 27.2371 4.69916C28.3246 4.90357 29.3913 5.20196 30.3492 5.79639C31.8069 6.6986 32.1332 8.00023 31.2169 9.46633C30.2705 10.9841 29.3195 12.4949 28.6277 14.156C27.8271 16.0779 27.2995 18.0632 27.5865 20.1637C27.716 21.1199 27.9706 22.0785 28.3084 22.9831C28.674 23.9652 29.2038 24.8838 29.7198 25.9458C30.7194 23.547 31.6727 21.2656 32.6399 18.9443C32.1656 18.6647 31.6912 18.3992 31.2331 18.1102C30.0322 17.356 29.5648 15.7795 30.1502 14.5013C30.3585 14.0455 30.65 13.8952 30.9994 14.0667C31.3395 14.2335 31.4089 14.5225 31.2169 14.9759C30.8953 15.7325 31.0896 16.5525 31.7468 17.0224C32.1679 17.3231 32.6307 17.5628 33.1189 17.8541C33.5146 16.7686 34.1786 15.998 35.2962 15.7513C36.0089 15.5939 36.6961 15.6949 37.3255 16.0873C38.1052 16.5736 38.5564 17.2902 38.6606 18.2112C38.7462 18.9866 38.6698 19.1886 37.9062 20.6665C37.9641 20.7088 38.0219 20.7557 38.0844 20.7957C39.6879 21.8906 40.1114 23.8594 39.0817 25.5182C37.7836 27.6046 36.4647 29.6792 35.1597 31.7632C34.5257 32.7759 34.6669 33.9107 35.5045 34.6672C35.8909 35.0173 36.3537 35.163 36.8581 35.2053C38.7068 35.3627 39.9795 36.7982 39.9448 38.6755C39.9355 39.1242 39.9494 39.573 39.9355 40.0218C39.9239 40.4212 39.7203 40.6256 39.3663 40.6279C39.0123 40.6279 38.8017 40.4259 38.7855 40.0312C38.7647 39.5025 38.7901 38.9739 38.7508 38.4476C38.6606 37.2822 37.9086 36.481 36.7563 36.3894C34.6067 36.2179 33.5539 34.4041 33.5932 32.9145C33.6117 32.2637 33.8246 31.6786 34.1694 31.1335C35.4674 29.0777 36.7586 27.0172 38.052 24.959C38.8272 23.7232 38.5333 22.4709 37.2607 21.6932C37.1959 21.7778 37.1219 21.8624 37.0617 21.9563C35.3078 24.6559 33.5516 27.3555 31.8116 30.0645C31.7144 30.2149 31.6727 30.4592 31.7121 30.6378C32.0175 32.024 32.1679 33.4243 32.1748 34.8411C32.1795 35.8913 31.5154 36.5844 30.4811 36.6032C29.6088 36.6173 28.7364 36.615 27.8664 36.6032C27.6165 36.5985 27.4661 36.6784 27.3296 36.8946C26.5984 38.0341 25.8511 39.1618 25.1037 40.292C24.8561 40.6655 24.5113 40.7478 24.2105 40.5152C23.9375 40.3037 23.9306 40.0382 24.0555 39.7375C24.4535 38.7765 24.8445 37.8132 25.2379 36.8523C25.261 36.7935 25.2772 36.7301 25.3073 36.6385H21.9522C21.9522 37.5783 21.9522 38.4993 21.9522 39.4203C21.9522 39.6176 21.9592 39.8173 21.9499 40.0147C21.9314 40.3977 21.7139 40.6162 21.3668 40.6138C21.0174 40.6138 20.793 40.3953 20.7907 40.01C20.7814 39.0326 20.786 38.0552 20.786 37.0778C20.786 36.9368 20.786 36.7935 20.786 36.6314H19.3769C19.3769 36.857 19.3769 37.0755 19.3769 37.2963C19.3769 38.1821 19.3815 39.0679 19.3769 39.9513C19.3746 40.3883 19.1525 40.6232 18.7753 40.6115C18.4166 40.6021 18.2153 40.3765 18.213 39.9513C18.2084 38.8564 18.213 37.7615 18.213 36.6126C17.3962 36.6126 16.6095 36.6126 15.8228 36.6173C15.7719 36.6173 15.7141 36.6737 15.6724 36.7183C15.4364 36.9721 15.2374 37.2705 14.969 37.4819C13.0716 38.9856 11.0077 40.1815 8.59434 40.5598C6.10926 40.9498 3.80003 40.4705 1.82863 38.7859C0.792019 37.9001 0.239008 36.7935 0.271402 35.3603C0.32462 32.9568 0.289912 30.5509 0.282971 28.1473C0.282971 27.4754 0.199672 26.801 0.222811 26.1291C0.331562 22.8914 1.92349 20.6101 4.69781 19.1299C6.54658 18.1454 8.555 17.7319 10.612 17.5369C11.2182 17.4805 11.8291 17.457 12.5302 17.4147C12.3474 16.7193 12.1993 16.0285 11.9864 15.3613C11.3339 13.3078 10.2742 11.4634 9.08719 9.68953C8.89051 9.39584 8.68689 9.0998 8.53881 8.78027C8.11074 7.85926 8.27965 6.99229 9.00852 6.28978C9.57773 5.74235 10.2811 5.42751 11.0123 5.17846C12.4492 4.68742 13.9463 4.48771 15.4433 4.3021C15.5984 4.2833 15.7534 4.26215 15.9061 4.23161C16.7484 4.07184 17.1787 3.60664 17.2713 2.74202C17.306 2.41309 17.3361 2.0818 17.3268 1.75287C17.3083 1.19604 17.5536 0.789572 18.0279 0.575767C18.4814 0.369009 18.9766 0.251534 19.4556 0.0941162C19.8721 0.0941162 20.2886 0.0941162 20.7051 0.0941162ZM15.677 35.4026C15.8228 35.4144 15.9246 35.4308 16.0241 35.4308C19.1848 35.4308 22.3479 35.4308 25.5086 35.4379C25.7655 35.4379 25.8626 35.3321 25.9552 35.1089C26.9802 32.5996 28.0215 30.0951 29.0396 27.5834C29.1043 27.4213 29.0812 27.1676 29.0025 27.0078C28.6138 26.216 28.195 25.4407 27.7831 24.663C26.1611 21.5969 25.9297 18.4227 27.0196 15.1287C27.7114 13.0329 28.7712 11.1321 29.9489 9.29011C30.1317 9.00347 30.3145 8.70978 30.4533 8.39965C30.6616 7.9274 30.5968 7.45984 30.1826 7.15206C29.7684 6.84427 29.3149 6.56233 28.8406 6.37437C27.487 5.83633 26.0524 5.63897 24.6155 5.4886C22.8639 5.30534 22.0054 4.52765 21.7463 2.81485C21.7023 2.52821 21.6676 2.23452 21.6815 1.94788C21.6977 1.62835 21.5727 1.47798 21.2696 1.47563C20.476 1.46858 19.6846 1.46623 18.891 1.46858C18.5902 1.46858 18.4537 1.61895 18.4791 1.94083C18.4953 2.16169 18.456 2.38959 18.4398 2.6128C18.301 4.2974 17.5119 5.16907 15.8668 5.43691C15.0338 5.57083 14.1916 5.66246 13.3609 5.81283C12.2734 6.01019 11.1882 6.24514 10.221 6.83017C9.38336 7.33532 9.27692 7.84046 9.80217 8.66044C9.95026 8.89305 10.1099 9.1186 10.2626 9.34885C11.2923 10.9113 12.1993 12.5371 12.8588 14.2993C14.0689 17.5346 14.2193 20.7628 12.7292 23.9511C12.1669 25.154 11.5005 26.3053 10.8966 27.4871C10.4015 28.4551 9.97339 29.4513 9.68416 30.6331C10.2441 30.3465 10.7254 30.128 11.1812 29.8648C12.4446 29.1388 13.5668 28.2178 14.5965 27.1817C14.9112 26.8645 15.2513 26.8128 15.4781 27.0994C15.6076 27.2662 15.6701 27.5294 15.6724 27.7502C15.6863 30.142 15.6817 32.5339 15.6817 34.9233C15.6817 35.0784 15.6817 35.2334 15.6817 35.4073L15.677 35.4026ZM4.25123 20.7534C3.93423 21.0189 3.70516 21.2256 3.46221 21.4136C3.11744 21.6814 2.9763 22.0057 2.99018 22.4638C3.02489 23.5329 3.00638 24.6019 2.99712 25.6733C2.99481 26.0586 2.80276 26.2536 2.46031 26.2677C2.10166 26.2841 1.87953 26.0891 1.84714 25.7038C1.83094 25.5065 1.8402 25.3091 1.8402 25.1094C1.8402 24.9238 1.8402 24.7405 1.8402 24.5549C1.8402 24.3857 1.8402 24.2166 1.8402 24.0474L1.73839 24.0545C1.30569 25.3561 1.23628 26.6859 1.56022 28.0181C1.72219 28.683 2.20116 29.167 2.73334 29.6111C3.39742 28.5937 4.28363 27.8936 5.29247 27.3461C6.74557 26.559 8.30742 26.1479 9.93175 25.9317C10.1307 25.9059 10.4153 25.8401 10.4963 25.6991C11.3131 24.2565 12.0466 22.7693 12.4053 21.1293C12.5834 20.3187 12.6829 19.4988 12.6042 18.6177C11.9309 18.6482 11.2923 18.6788 10.6352 18.7093C10.6352 19.2168 10.6398 19.6515 10.6352 20.0861C10.6305 20.5231 10.4153 20.7722 10.0521 20.7698C9.6911 20.7698 9.47823 20.5208 9.47129 20.0767C9.46435 19.6844 9.47129 19.292 9.47129 18.8573C8.96687 18.9584 8.51567 19.05 8.05289 19.144C8.05289 19.6491 8.05289 20.1096 8.05289 20.5725C8.05289 21.2985 8.05752 22.0245 8.05289 22.7505C8.05058 23.1992 7.84696 23.4389 7.47906 23.4459C7.10653 23.453 6.89597 23.2157 6.88671 22.774C6.8844 22.6283 6.88671 22.4826 6.88671 22.3393C6.88671 21.4066 6.88671 20.4715 6.88671 19.4682C6.47253 19.635 6.1162 19.7877 5.75292 19.917C5.49609 20.0086 5.38965 20.1519 5.40816 20.4409C5.43593 20.8474 5.41973 21.2585 5.41279 21.6697C5.40816 22.0973 5.21611 22.3252 4.86209 22.3393C4.49419 22.3558 4.26743 22.1138 4.25123 21.6791C4.24198 21.4089 4.25123 21.1364 4.25123 20.7581V20.7534ZM1.44453 30.0833C1.44453 30.2783 1.44453 30.4075 1.44453 30.5368C1.44453 32.1603 1.47229 33.7861 1.43296 35.4073C1.40982 36.3401 1.73376 37.0966 2.39321 37.6887C2.84672 38.0952 3.3442 38.4852 3.88564 38.7483C6.00051 39.7751 8.1547 39.7022 10.3182 38.8705C10.5681 38.7742 10.6467 38.6567 10.6444 38.3888C10.6328 36.1967 10.6375 34.0047 10.6375 31.8149C10.6375 31.7186 10.6236 31.6199 10.6166 31.5095C10.1886 31.6622 9.80448 31.822 9.4065 31.9324C9.17974 31.9958 9.12652 32.1062 9.13346 32.3224C9.14735 32.6913 9.14272 33.0625 9.13346 33.4314C9.12421 33.8731 8.90902 34.1104 8.53881 34.1057C8.16859 34.101 7.97654 33.8707 7.97191 33.4126C7.96728 33.0343 7.97191 32.656 7.97191 32.2919H6.50261C6.50261 32.4657 6.50261 32.609 6.50261 32.7524C6.50261 33.7039 6.51881 34.6531 6.48873 35.6047C6.48179 35.7903 6.33833 36.0534 6.18561 36.1333C6.02596 36.2155 5.72516 36.1897 5.5817 36.0793C5.43824 35.9688 5.35263 35.701 5.348 35.4989C5.32486 34.4699 5.34106 33.4384 5.3318 32.4093C5.3318 32.2895 5.26933 32.0921 5.18834 32.064C4.77879 31.9206 4.35304 31.8196 3.88564 31.6904C3.88564 32.0452 3.89953 32.36 3.88333 32.6725C3.8625 33.0601 3.64269 33.2716 3.2933 33.2646C2.94622 33.2599 2.74028 33.0461 2.73103 32.6513C2.71946 32.2167 2.73797 31.7797 2.71946 31.345C2.71483 31.2158 2.66393 31.0513 2.576 30.9738C2.23124 30.6777 1.86333 30.4075 1.44453 30.0833ZM27.5679 34.2607C27.5911 34.2725 27.6165 34.2866 27.6397 34.2983C30.5042 29.9024 33.3665 25.5041 36.2449 21.0847C35.9534 20.9132 35.7104 20.7698 35.4466 20.6171C35.3679 20.7463 35.3055 20.8591 35.2361 20.9648C35.0371 21.2726 34.7663 21.3549 34.4702 21.1998C34.1555 21.0353 34.0514 20.7346 34.2226 20.401C34.5303 19.8042 34.8473 19.2145 35.1736 18.6271C35.3564 18.2958 35.6641 18.2042 35.9649 18.3639C36.2657 18.5214 36.3583 18.8291 36.2033 19.1722C36.1454 19.3014 36.0783 19.4259 36.0043 19.5739C36.2981 19.7455 36.5758 19.9052 36.8743 20.0791C37.0524 19.7783 37.2352 19.5175 37.3694 19.2356C37.8924 18.129 37.0663 16.8391 35.8608 16.8814C35.1227 16.9072 34.6229 17.2949 34.336 17.981C32.2628 22.9619 30.1895 27.9429 28.1163 32.9262C27.9312 33.3703 27.7507 33.8167 27.5679 34.2631V34.2607ZM11.8037 38.0999C11.8384 38.128 11.8708 38.1539 11.9055 38.1821C12.6737 37.6487 13.4395 37.1131 14.2124 36.5868C14.4414 36.4317 14.5201 36.2437 14.5201 35.9618C14.5085 33.758 14.5132 31.5565 14.5132 29.3526C14.5132 29.2281 14.5016 29.1036 14.4947 28.9908C13.6223 29.6017 12.7685 30.1937 11.9263 30.8023C11.8453 30.861 11.8083 31.0255 11.806 31.1406C11.7944 31.8126 11.8013 32.4869 11.8013 33.1588C11.8013 34.8058 11.8013 36.4528 11.8013 38.0999H11.8037ZM3.7445 30.2924C5.16289 30.9926 6.64838 31.2369 8.20561 30.9996C8.29354 30.9855 8.39766 30.8422 8.43237 30.7365C8.55037 30.3747 8.61516 29.994 8.74474 29.6369C9.03628 28.824 9.35328 28.0204 9.65871 27.2193C7.71044 27.3015 4.45022 28.6924 3.74681 30.2924H3.7445ZM28.2945 35.4238C29.1113 35.4238 29.8332 35.4355 30.5551 35.4167C30.8397 35.4097 30.9994 35.217 31.004 34.921C31.0063 34.6696 31.0133 34.4182 30.9924 34.1691C30.9277 33.3797 30.849 32.5926 30.775 31.8032C30.7379 31.8008 30.7032 31.7985 30.6662 31.7961C29.8934 32.9779 29.1182 34.1597 28.2922 35.4238H28.2945Z" fill="#1E1E1E"/>
</svg>
