<svg width="27" height="39" viewBox="0 0 27 39" fill="none" xmlns="http://www.w3.org/2000/svg">
<path d="M19.6629 17.4601L16.9483 16.9202V15.445C18.1497 14.4793 18.9786 13.0649 19.1763 11.4605H19.2295C20.6971 11.4605 21.8909 10.2667 21.8909 8.79908C21.8909 7.74212 21.2674 6.83724 20.3701 6.40381V1.57525H21.8909V4.61686C21.8909 5.03509 22.2331 5.37727 22.6513 5.37727C23.0696 5.37727 23.4117 5.03509 23.4117 4.61686V1.57525H23.7919C24.2102 1.57525 24.5523 1.23307 24.5523 0.814847C24.5523 0.396625 24.2102 0.0544434 23.7919 0.0544434H16.1879C15.7697 0.0544434 15.4275 0.396625 15.4275 0.814847C15.4275 1.23307 15.7697 1.57525 16.1879 1.57525H18.8493V6.13767H7.44326V1.57525H10.1047C10.5229 1.57525 10.8651 1.23307 10.8651 0.814847C10.8651 0.396625 10.5229 0.0544434 10.1047 0.0544434H2.50064C2.08242 0.0544434 1.74023 0.396625 1.74023 0.814847C1.74023 1.23307 2.08242 1.57525 2.50064 1.57525H5.92245V6.40381C5.02518 6.83724 4.40165 7.74212 4.40165 8.79908C4.40165 10.2667 5.59548 11.4605 7.06306 11.4605H7.11629C7.31399 13.0649 8.14283 14.4793 9.34427 15.445V16.9202L6.62963 17.4601C3.79332 18.0304 1.74023 20.5397 1.74023 23.4292V28.1894C1.74023 28.6076 2.08242 28.9498 2.50064 28.9498H23.7919C24.2102 28.9498 24.5523 28.6076 24.5523 28.1894V23.4292C24.5523 20.5397 22.4992 18.0304 19.6629 17.4601ZM19.2295 7.65848C19.8606 7.65848 20.3701 8.16795 20.3701 8.79908C20.3701 9.43022 19.8606 9.93969 19.2295 9.93969V7.65848ZM7.06306 9.93969C6.43192 9.93969 5.92245 9.43022 5.92245 8.79908C5.92245 8.16795 6.43192 7.65848 7.06306 7.65848V9.93969ZM8.58387 10.7001V7.65848H17.7087V10.7001C17.7087 13.217 15.6632 15.2625 13.1463 15.2625C10.6294 15.2625 8.58387 13.217 8.58387 10.7001ZM15.4275 16.3347V17.1635L13.1463 18.8744L10.8651 17.1635V16.3347C11.5723 16.6236 12.3403 16.7833 13.1463 16.7833C13.9523 16.7833 14.7203 16.6236 15.4275 16.3347ZM10.5685 27.429H7.82346V24.3874C7.82346 23.9691 7.48128 23.627 7.06306 23.627C6.64484 23.627 6.30266 23.9691 6.30266 24.3874V27.429H3.26104V23.4292C3.26104 21.3838 4.63737 19.612 6.5764 19.0569L9.51916 22.5928C9.7777 22.9046 10.2339 22.9578 10.5609 22.7145L11.1768 22.2582L10.5685 27.429ZM10.2263 21.0644L8.24929 18.6919L9.92218 18.3574L11.8764 19.8249L10.2263 21.0644ZM12.0969 27.429L12.8497 20.996L13.1463 20.7754L13.4428 20.996L14.1956 27.429H12.0969ZM16.3704 18.3574L18.0433 18.6919L16.0662 21.0644L14.4162 19.8249L16.3704 18.3574ZM23.0315 27.429H19.9899V24.3874C19.9899 23.9691 19.6477 23.627 19.2295 23.627C18.8113 23.627 18.4691 23.9691 18.4691 24.3874V27.429H15.7241L15.1157 22.2582L15.7317 22.7145C16.0586 22.9578 16.5149 22.9046 16.7734 22.5928L19.7162 19.0569C21.6552 19.612 23.0315 21.3838 23.0315 23.4292V27.429Z" fill="#1E1E1E"/>
<path d="M11.6256 10.8598C12.0439 10.8598 12.386 10.5176 12.386 10.0994V9.52908C12.386 9.11086 12.0439 8.76868 11.6256 8.76868C11.2074 8.76868 10.8652 9.11086 10.8652 9.52908V10.0994C10.8652 10.5176 11.2074 10.8598 11.6256 10.8598Z" fill="#1E1E1E"/>
<path d="M14.6667 10.8598C15.0849 10.8598 15.4271 10.5176 15.4271 10.0994V9.52908C15.4271 9.11086 15.0849 8.76868 14.6667 8.76868C14.2484 8.76868 13.9062 9.11086 13.9062 9.52908V10.0994C13.9062 10.5176 14.2484 10.8598 14.6667 10.8598Z" fill="#1E1E1E"/>
<path d="M11.1769 12.2894C10.8879 12.5936 10.8955 13.0726 11.1921 13.3616C11.732 13.8787 12.4392 14.1448 13.1463 14.1448C13.8535 14.1448 14.5607 13.8863 15.1006 13.3616C15.4047 13.0726 15.4123 12.586 15.1234 12.2894C14.8344 11.9853 14.3478 11.9776 14.0512 12.2742C13.557 12.7533 12.7509 12.7533 12.2567 12.2742C11.9525 11.9853 11.4734 11.9929 11.1845 12.2894H11.1769Z" fill="#1E1E1E"/>
<path d="M23.0308 30.4706H3.26036C1.57987 30.4706 0.21875 32.1739 0.21875 34.2726C0.21875 36.3713 1.57987 38.0746 3.26036 38.0746H23.0308C24.7113 38.0746 26.0725 36.3713 26.0725 34.2726C26.0725 32.1739 24.7113 30.4706 23.0308 30.4706ZM16.1872 34.2726C16.1872 35.5121 15.4876 36.5538 14.6664 36.5538H14.0429C14.4307 35.9151 14.6664 35.1319 14.6664 34.2726C14.6664 33.4133 14.4307 32.6301 14.0429 31.9914H14.6664C15.4876 31.9914 16.1872 33.0331 16.1872 34.2726ZM5.67845 36.5538C6.06625 35.9151 6.30198 35.1319 6.30198 34.2726C6.30198 33.4133 6.06625 32.6301 5.67845 31.9914H11.6248C12.446 31.9914 13.1456 33.0331 13.1456 34.2726C13.1456 35.5121 12.446 36.5538 11.6248 36.5538H5.67845ZM1.73956 34.2726C1.73956 33.0331 2.43913 31.9914 3.26036 31.9914C4.0816 31.9914 4.78117 33.0331 4.78117 34.2726C4.78117 35.5121 4.0816 36.5538 3.26036 36.5538C2.43913 36.5538 1.73956 35.5121 1.73956 34.2726ZM23.0308 36.5538H17.0845C17.4723 35.9151 17.708 35.1319 17.708 34.2726C17.708 33.4133 17.4723 32.6301 17.0845 31.9914H23.0308C23.8521 31.9914 24.5517 33.0331 24.5517 34.2726C24.5517 35.5121 23.8521 36.5538 23.0308 36.5538Z" fill="#1E1E1E"/>
<path d="M13.1452 1.57525C13.5651 1.57525 13.9056 1.23481 13.9056 0.814847C13.9056 0.394888 13.5651 0.0544434 13.1452 0.0544434C12.7252 0.0544434 12.3848 0.394888 12.3848 0.814847C12.3848 1.23481 12.7252 1.57525 13.1452 1.57525Z" fill="#1E1E1E"/>
</svg>
