<svg width="41" height="38" viewBox="0 0 41 38" fill="none" xmlns="http://www.w3.org/2000/svg">
<rect width="41" height="38" fill="#939191"/>
<g id="Industries">
<g clip-path="url(#clip0_18_279)">
<rect x="-949" y="-708" width="1440" height="1453" rx="7" fill="#1E1E1E"/>
<rect id="Rectangle 40" x="-934" y="-690" width="1410" height="1420" rx="7" fill="white"/>
<g id="Group 582">
<g id="Group 577">
<g id="Vector">
<mask id="path-3-inside-1_18_279" fill="white">
<path d="M3.02372 37.1817H34.3766C35.6042 37.1817 36.6041 36.1818 36.6041 34.9542V28.5853H39.2375C40.1945 28.5853 40.9732 27.8065 40.9732 26.8495V22.19C40.9732 21.233 40.1945 20.4542 39.2375 20.4542H34.3733V6.57457C34.3733 4.61769 32.7827 3.02711 30.8259 3.02711H29.0109V2.40012C29.0109 1.45633 28.242 0.687439 27.2982 0.687439H10.5872C9.64343 0.687439 8.87454 1.45633 8.87454 2.40012V3.02711H7.05956C5.10269 3.02711 3.51211 4.61769 3.51211 6.57457V31.5685H3.02372C1.47603 31.5685 0.21875 32.8257 0.21875 34.3734C0.21875 35.9211 1.47603 37.1784 3.02372 37.1784V37.1817ZM35.4491 34.9542C35.4491 35.5449 34.9673 36.0267 34.3766 36.0267C33.7859 36.0267 33.3041 35.5449 33.3041 34.9542V28.5853H35.4491V34.9542ZM39.8183 22.1933V26.8528C39.8183 27.1729 39.5576 27.4336 39.2375 27.4336H29.5158C29.1957 27.4336 28.935 27.1729 28.935 26.8528V22.1933C28.935 21.8732 29.1957 21.6125 29.5158 21.6125H39.2375C39.5576 21.6125 39.8183 21.8732 39.8183 22.1933ZM18.6556 27.4336C18.2662 27.4336 17.9461 27.1168 17.9461 26.7241V23.774C17.9461 23.3846 18.2629 23.0645 18.6556 23.0645H23.0677V27.4303H18.6556V27.4336ZM24.2227 23.0678H27.78V26.8528C27.78 27.0574 27.8229 27.2521 27.8889 27.4336H24.2227V23.0678ZM4.66709 12.6267H9.45203V15.5142C9.45203 16.8341 8.37955 17.9066 7.05956 17.9066C5.73958 17.9066 4.66709 16.8341 4.66709 15.5142V12.6267ZM10.607 12.6267H15.392V15.5142C15.392 16.8341 14.3195 17.9066 12.9995 17.9066C11.6795 17.9066 10.607 16.8341 10.607 15.5142V12.6267ZM16.5469 12.6267H21.3319V15.5142C21.3319 16.8341 20.2594 17.9066 18.9394 17.9066C17.6194 17.9066 16.5469 16.8341 16.5469 15.5142V12.6267ZM22.4869 12.6267H27.2718V15.5142C27.2718 16.8341 26.1993 17.9066 24.8793 17.9066C23.5594 17.9066 22.4869 16.8341 22.4869 15.5142V12.6267ZM28.4268 12.6267H33.2117V15.5142C33.2117 16.8341 32.1393 17.9066 30.8193 17.9066C29.4993 17.9066 28.4268 16.8341 28.4268 15.5142V12.6267ZM10.5872 1.84242H27.2949C27.6018 1.84242 27.8526 2.09322 27.8526 2.40012V7.35666C27.8526 7.66355 27.6018 7.91435 27.2949 7.91435H10.5872C10.2803 7.91435 10.0295 7.66355 10.0295 7.35666V2.40012C10.0295 2.09322 10.2803 1.84242 10.5872 1.84242ZM4.66709 6.57457C4.66709 5.25458 5.73958 4.1821 7.05956 4.1821H8.87454V7.35666C8.87454 8.30044 9.64343 9.06933 10.5872 9.06933H27.2949C28.2387 9.06933 29.0076 8.30044 29.0076 7.35666V4.1821H30.8226C32.1426 4.1821 33.215 5.25458 33.215 6.57457V11.4717H4.66709V6.57457ZM4.66709 18.1277C5.29739 18.7085 6.13888 19.0649 7.05956 19.0649C8.30035 19.0649 9.39594 18.4247 10.0295 17.4545C10.6631 18.4247 11.7587 19.0649 12.9995 19.0649C14.2403 19.0649 15.3359 18.4247 15.9695 17.4545C16.603 18.4247 17.6986 19.0649 18.9394 19.0649C20.1802 19.0649 21.2758 18.4247 21.9094 17.4545C22.543 18.4247 23.6386 19.0649 24.8793 19.0649C26.1201 19.0649 27.2157 18.4247 27.8493 17.4545C28.4829 18.4247 29.5785 19.0649 30.8193 19.0649C31.7433 19.0649 32.5814 18.7085 33.2117 18.1277V20.4575H29.5125C28.6512 20.4575 27.9417 21.0878 27.8064 21.9095H18.6523C17.626 21.9095 16.7878 22.7444 16.7878 23.774V26.7241C16.7878 27.7504 17.6227 28.5886 18.6523 28.5886H32.1458V31.5718H14.7419V23.6255C14.7419 22.6817 13.973 21.9128 13.0292 21.9128H8.93064C7.98685 21.9128 7.21796 22.6817 7.21796 23.6255V31.5718H4.66379V18.131L4.66709 18.1277ZM8.37625 31.5685V23.6222C8.37625 23.3153 8.62704 23.0645 8.93394 23.0645H13.0325C13.3394 23.0645 13.5902 23.3153 13.5902 23.6222V31.5685H8.37625ZM3.02701 32.7234C9.41574 32.7234 25.7703 32.7234 32.1525 32.7234V34.9542C32.1525 35.3436 32.2514 35.7099 32.4296 36.0267H3.02372C2.11293 36.0267 1.37374 35.2842 1.37374 34.3767C1.37374 33.4692 2.11623 32.7267 3.02372 32.7267L3.02701 32.7234Z"/>
</mask>
<path d="M3.02372 37.1817H34.3766C35.6042 37.1817 36.6041 36.1818 36.6041 34.9542V28.5853H39.2375C40.1945 28.5853 40.9732 27.8065 40.9732 26.8495V22.19C40.9732 21.233 40.1945 20.4542 39.2375 20.4542H34.3733V6.57457C34.3733 4.61769 32.7827 3.02711 30.8259 3.02711H29.0109V2.40012C29.0109 1.45633 28.242 0.687439 27.2982 0.687439H10.5872C9.64343 0.687439 8.87454 1.45633 8.87454 2.40012V3.02711H7.05956C5.10269 3.02711 3.51211 4.61769 3.51211 6.57457V31.5685H3.02372C1.47603 31.5685 0.21875 32.8257 0.21875 34.3734C0.21875 35.9211 1.47603 37.1784 3.02372 37.1784V37.1817ZM35.4491 34.9542C35.4491 35.5449 34.9673 36.0267 34.3766 36.0267C33.7859 36.0267 33.3041 35.5449 33.3041 34.9542V28.5853H35.4491V34.9542ZM39.8183 22.1933V26.8528C39.8183 27.1729 39.5576 27.4336 39.2375 27.4336H29.5158C29.1957 27.4336 28.935 27.1729 28.935 26.8528V22.1933C28.935 21.8732 29.1957 21.6125 29.5158 21.6125H39.2375C39.5576 21.6125 39.8183 21.8732 39.8183 22.1933ZM18.6556 27.4336C18.2662 27.4336 17.9461 27.1168 17.9461 26.7241V23.774C17.9461 23.3846 18.2629 23.0645 18.6556 23.0645H23.0677V27.4303H18.6556V27.4336ZM24.2227 23.0678H27.78V26.8528C27.78 27.0574 27.8229 27.2521 27.8889 27.4336H24.2227V23.0678ZM4.66709 12.6267H9.45203V15.5142C9.45203 16.8341 8.37955 17.9066 7.05956 17.9066C5.73958 17.9066 4.66709 16.8341 4.66709 15.5142V12.6267ZM10.607 12.6267H15.392V15.5142C15.392 16.8341 14.3195 17.9066 12.9995 17.9066C11.6795 17.9066 10.607 16.8341 10.607 15.5142V12.6267ZM16.5469 12.6267H21.3319V15.5142C21.3319 16.8341 20.2594 17.9066 18.9394 17.9066C17.6194 17.9066 16.5469 16.8341 16.5469 15.5142V12.6267ZM22.4869 12.6267H27.2718V15.5142C27.2718 16.8341 26.1993 17.9066 24.8793 17.9066C23.5594 17.9066 22.4869 16.8341 22.4869 15.5142V12.6267ZM28.4268 12.6267H33.2117V15.5142C33.2117 16.8341 32.1393 17.9066 30.8193 17.9066C29.4993 17.9066 28.4268 16.8341 28.4268 15.5142V12.6267ZM10.5872 1.84242H27.2949C27.6018 1.84242 27.8526 2.09322 27.8526 2.40012V7.35666C27.8526 7.66355 27.6018 7.91435 27.2949 7.91435H10.5872C10.2803 7.91435 10.0295 7.66355 10.0295 7.35666V2.40012C10.0295 2.09322 10.2803 1.84242 10.5872 1.84242ZM4.66709 6.57457C4.66709 5.25458 5.73958 4.1821 7.05956 4.1821H8.87454V7.35666C8.87454 8.30044 9.64343 9.06933 10.5872 9.06933H27.2949C28.2387 9.06933 29.0076 8.30044 29.0076 7.35666V4.1821H30.8226C32.1426 4.1821 33.215 5.25458 33.215 6.57457V11.4717H4.66709V6.57457ZM4.66709 18.1277C5.29739 18.7085 6.13888 19.0649 7.05956 19.0649C8.30035 19.0649 9.39594 18.4247 10.0295 17.4545C10.6631 18.4247 11.7587 19.0649 12.9995 19.0649C14.2403 19.0649 15.3359 18.4247 15.9695 17.4545C16.603 18.4247 17.6986 19.0649 18.9394 19.0649C20.1802 19.0649 21.2758 18.4247 21.9094 17.4545C22.543 18.4247 23.6386 19.0649 24.8793 19.0649C26.1201 19.0649 27.2157 18.4247 27.8493 17.4545C28.4829 18.4247 29.5785 19.0649 30.8193 19.0649C31.7433 19.0649 32.5814 18.7085 33.2117 18.1277V20.4575H29.5125C28.6512 20.4575 27.9417 21.0878 27.8064 21.9095H18.6523C17.626 21.9095 16.7878 22.7444 16.7878 23.774V26.7241C16.7878 27.7504 17.6227 28.5886 18.6523 28.5886H32.1458V31.5718H14.7419V23.6255C14.7419 22.6817 13.973 21.9128 13.0292 21.9128H8.93064C7.98685 21.9128 7.21796 22.6817 7.21796 23.6255V31.5718H4.66379V18.131L4.66709 18.1277ZM8.37625 31.5685V23.6222C8.37625 23.3153 8.62704 23.0645 8.93394 23.0645H13.0325C13.3394 23.0645 13.5902 23.3153 13.5902 23.6222V31.5685H8.37625ZM3.02701 32.7234C9.41574 32.7234 25.7703 32.7234 32.1525 32.7234V34.9542C32.1525 35.3436 32.2514 35.7099 32.4296 36.0267H3.02372C2.11293 36.0267 1.37374 35.2842 1.37374 34.3767C1.37374 33.4692 2.11623 32.7267 3.02372 32.7267L3.02701 32.7234Z" fill="#1E1E1E" stroke="#1E1E1E" stroke-width="1.74431" mask="url(#path-3-inside-1_18_279)"/>
</g>
</g>
</g>
</g>
</g>
<defs>
<clipPath id="clip0_18_279">
<rect x="-949" y="-708" width="1440" height="1453" rx="7" fill="white"/>
</clipPath>
</defs>
</svg>
