<svg width="39" height="41" viewBox="0 0 39 41" fill="none" xmlns="http://www.w3.org/2000/svg">
<g clip-path="url(#clip0_2368_86)">
<path d="M6.86653 39.5163H1.36096V23.3373L27.1792 18.1736C27.5021 18.109 27.7106 17.7957 27.646 17.4729C27.5815 17.15 27.2681 16.9415 26.9453 17.006L21.7192 18.0519L21.0872 10.4694C21.0618 10.1614 20.8035 9.92322 20.4933 9.92322H15.5615C15.2514 9.92322 14.9941 10.1603 14.9677 10.4694L14.2108 19.5529L12.0143 19.9922L11.2214 10.4694C11.196 10.1614 10.9377 9.92322 10.6276 9.92322H5.69576C5.3856 9.92322 5.12837 10.1603 5.10297 10.4694L4.17779 21.5589L0.646437 22.2649C0.368036 22.3211 0.167969 22.5656 0.167969 22.8493V40.1122C0.167969 40.4404 0.434725 40.7072 0.762878 40.7072H6.86441C7.19362 40.7072 7.45932 40.4404 7.45932 40.1122C7.45932 39.7841 7.19256 39.5173 6.86441 39.5173L6.86653 39.5163ZM15.9056 13.5795H20.1525L20.2583 14.854H15.7986L15.9045 13.5795H15.9056ZM19.9471 11.1141L20.053 12.3897H16.004L16.1099 11.1141H19.9461H19.9471ZM15.6991 16.0459H20.3568L20.5442 18.2858L15.4271 19.3095L15.6991 16.0459ZM6.03979 13.5795H10.2867L10.3926 14.854H5.93394L6.03979 13.5795ZM10.0824 11.1141L10.1883 12.3897H6.1393L6.24621 11.1141H10.0824ZM5.83549 16.0459H10.4931L10.8414 20.2272L5.39619 21.3165L5.83549 16.047V16.0459Z" fill="#1E1E1E" stroke="#1E1E1E" stroke-width="0.105856" stroke-miterlimit="10"/>
<path d="M37.6417 14.8678L29.4908 16.4969C29.1679 16.5615 28.9594 16.8748 29.0239 17.1977C29.0885 17.5195 29.4018 17.7291 29.7247 17.6645L37.1632 16.1772V39.5163H32.189V34.8269C32.189 34.4977 31.9223 34.232 31.5941 34.232C31.266 34.232 30.9992 34.4987 30.9992 34.8269V39.5163H24.7918V28.3771H30.9992V32.2334C30.9992 32.5626 31.266 32.8283 31.5941 32.8283C31.9223 32.8283 32.189 32.5616 32.189 32.2334V27.7822C32.189 27.453 31.9223 27.1873 31.5941 27.1873H24.1958C23.8666 27.1873 23.6009 27.454 23.6009 27.7822V39.5174H22.3264V27.7822C22.3264 27.453 22.0597 27.1873 21.7315 27.1873H14.3333C14.004 27.1873 13.7383 27.454 13.7383 27.7822V39.5174H9.466C9.13679 39.5174 8.87109 39.7841 8.87109 40.1123C8.87109 40.4404 9.13679 40.7072 9.466 40.7072H37.7623C38.0915 40.7072 38.3572 40.4404 38.3572 40.1123V15.451C38.3572 14.9779 37.9624 14.8053 37.6448 14.8678H37.6417ZM14.925 28.3771H21.1324V39.5163H14.925V28.3771Z" fill="#1E1E1E" stroke="#1E1E1E" stroke-width="0.105856" stroke-miterlimit="10"/>
<path d="M6.93191 8.64759C7.26112 8.64759 7.52682 8.38083 7.52682 8.05268C7.52682 5.6614 9.47245 3.71577 11.8637 3.71577H21.7284C22.0566 3.71577 22.3233 3.44901 22.3233 3.12086C22.3233 2.08877 23.1628 1.25039 24.1938 1.25039H35.8316C35.5818 1.99138 34.881 2.52595 34.0585 2.52595H24.1938C23.8646 2.52595 23.5989 2.79271 23.5989 3.12086C23.5989 4.1519 22.7595 4.99133 21.7284 4.99133H20.4952C18.8079 4.99133 17.4339 6.36428 17.4339 8.05268C17.4339 8.38189 17.7006 8.64759 18.0288 8.64759C18.3569 8.64759 18.6237 8.38083 18.6237 8.05268C18.6237 7.02059 19.4631 6.18221 20.4942 6.18221H21.7274C23.2115 6.18221 24.4532 5.12048 24.7305 3.71577H34.0575C35.7459 3.71577 37.1188 2.34176 37.1188 0.654419C37.1188 0.325207 36.8521 0.0595093 36.5239 0.0595093H24.1938C22.7097 0.0595093 21.468 1.12124 21.1907 2.52595H11.8637C8.81614 2.52595 6.33594 5.00615 6.33594 8.05374C6.33594 8.38295 6.60269 8.64865 6.93085 8.64865L6.93191 8.64759Z" fill="#1E1E1E" stroke="#1E1E1E" stroke-width="0.105856" stroke-miterlimit="10"/>
<path d="M26.661 22.2534H24.1945C23.8653 22.2534 23.5996 22.5201 23.5996 22.8483V25.3147C23.5996 25.6429 23.8664 25.9096 24.1945 25.9096H26.661C26.9902 25.9096 27.2559 25.6429 27.2559 25.3147V22.8483C27.2559 22.5191 26.9891 22.2534 26.661 22.2534ZM26.066 24.7198H24.7905V23.4442H26.066V24.7198Z" fill="#1E1E1E" stroke="#1E1E1E" stroke-width="0.105856" stroke-miterlimit="10"/>
<path d="M14.3273 22.2534C13.9981 22.2534 13.7324 22.5201 13.7324 22.8483V25.3147C13.7324 25.6429 13.9992 25.9096 14.3273 25.9096H16.7938C17.123 25.9096 17.3887 25.6429 17.3887 25.3147V22.8483C17.3887 22.5191 17.1219 22.2534 16.7938 22.2534H14.3273ZM16.1978 24.7198H14.9222V23.4442H16.1978V24.7198Z" fill="#1E1E1E" stroke="#1E1E1E" stroke-width="0.105856" stroke-miterlimit="10"/>
<path d="M19.2609 22.2534C18.9317 22.2534 18.666 22.5201 18.666 22.8483V25.3147C18.666 25.6429 18.9328 25.9096 19.2609 25.9096H21.7274C22.0555 25.9096 22.3223 25.6429 22.3223 25.3147V22.8483C22.3223 22.5191 22.0555 22.2534 21.7274 22.2534H19.2609ZM21.1314 24.7198H19.8558V23.4442H21.1314V24.7198Z" fill="#1E1E1E" stroke="#1E1E1E" stroke-width="0.105856" stroke-miterlimit="10"/>
<path d="M29.1253 25.9107H31.5917C31.9209 25.9107 32.1866 25.6439 32.1866 25.3157V22.8493C32.1866 22.5201 31.9199 22.2544 31.5917 22.2544H29.1253C28.7961 22.2544 28.5293 22.5212 28.5293 22.8493V25.3157C28.5293 25.6439 28.7961 25.9107 29.1253 25.9107ZM29.7202 23.4442H30.9957V24.7198H29.7202V23.4442Z" fill="#1E1E1E" stroke="#1E1E1E" stroke-width="0.105856" stroke-miterlimit="10"/>
<path d="M10.6282 29.6516H4.46316C4.13394 29.6516 3.86719 29.9183 3.86719 30.2475C3.86719 30.5767 4.13394 30.8424 4.46316 30.8424H10.6282C10.9574 30.8424 11.2231 30.5757 11.2231 30.2475C11.2231 29.9194 10.9564 29.6516 10.6282 29.6516Z" fill="#1E1E1E" stroke="#1E1E1E" stroke-width="0.105856" stroke-miterlimit="10"/>
<path d="M10.6282 32.118H4.46316C4.13394 32.118 3.86719 32.3847 3.86719 32.7129C3.86719 33.041 4.13394 33.3078 4.46316 33.3078H10.6282C10.9574 33.3078 11.2231 33.041 11.2231 32.7129C11.2231 32.3847 10.9564 32.118 10.6282 32.118Z" fill="#1E1E1E" stroke="#1E1E1E" stroke-width="0.105856" stroke-miterlimit="10"/>
<path d="M10.6282 27.1862H4.46316C4.13394 27.1862 3.86719 27.4529 3.86719 27.7811C3.86719 28.1092 4.13394 28.376 4.46316 28.376H10.6282C10.9574 28.376 11.2231 28.1092 11.2231 27.7811C11.2231 27.4529 10.9564 27.1862 10.6282 27.1862Z" fill="#1E1E1E" stroke="#1E1E1E" stroke-width="0.105856" stroke-miterlimit="10"/>
</g>
<defs>
<clipPath id="clip0_2368_86">
<rect width="38.2881" height="40.7545" fill="white" transform="translate(0.117188 0.0055542)"/>
</clipPath>
</defs>
</svg>
