<svg width="40" height="41" viewBox="0 0 40 41" fill="none" xmlns="http://www.w3.org/2000/svg">
<path d="M36.7906 1.47235C35.2647 0.540075 33.463 0.522617 31.7102 1.41649C28.5852 3.01568 25.8128 3.06456 25.7918 3.06456H4.12595C1.0428 3.06456 0.127981 4.78596 0.0895721 4.85928C-0.00121154 5.03387 -0.00121154 5.23988 0.0895721 5.41446C0.127981 5.48778 1.0428 7.20569 4.12595 7.20569H25.7848C25.8128 7.20569 28.5852 7.25108 31.7102 8.85376C32.3876 9.20293 33.0755 9.40894 33.7494 9.48227V27.3876C33.7494 27.8101 33.5853 28.2046 33.285 28.5049C32.9917 28.8017 32.5936 28.9658 32.1711 28.9658C30.6976 28.9658 29.4965 30.167 29.4965 31.6405V37.6392C29.4965 38.4283 28.861 39.0603 28.0754 39.0603C27.2898 39.0603 26.6543 38.4213 26.6543 37.6392V33.3863C26.6543 32.7124 26.3924 32.0804 25.921 31.616C25.8896 31.5811 25.8477 31.5567 25.8128 31.5252C27.7018 29.088 28.8296 26.0363 28.8296 22.7227C28.8296 14.7791 22.37 8.31954 14.4264 8.31954C6.48284 8.31954 0.0232302 14.7826 0.0232302 22.7227C0.0232302 30.6628 6.48284 37.1259 14.4264 37.1259C15.5298 37.1259 16.6017 36.9967 17.6318 36.7628V37.7719C17.6318 39.158 18.7596 40.2859 20.1493 40.2859H20.3308C21.717 40.2859 22.8448 39.158 22.8448 37.7719V34.3989C23.6375 33.8263 24.3707 33.1768 25.0306 32.4575C25.0376 32.4645 25.0481 32.4715 25.0551 32.4785C25.2995 32.7194 25.4322 33.0441 25.4322 33.3898V37.6427C25.4322 39.0987 26.6193 40.2859 28.0754 40.2859C29.5314 40.2859 30.7186 39.1092 30.7186 37.6427V31.644C30.7186 30.8444 31.3715 30.1914 32.1711 30.1914C32.9218 30.1914 33.6272 29.8981 34.1474 29.3709C34.6781 28.8436 34.9714 28.1418 34.9714 27.3911V9.46481C35.6034 9.37402 36.218 9.15405 36.7871 8.80488C38.1628 7.96339 39.1615 6.42355 39.1615 5.13862C39.1615 3.85368 38.1663 2.31385 36.7906 1.47585V1.47235ZM14.4264 35.9038C7.15673 35.9038 1.24532 29.9924 1.24532 22.7227C1.24532 15.453 7.15673 9.54163 14.4264 9.54163C21.6961 9.54163 27.6075 15.453 27.6075 22.7227C27.6075 25.8303 26.5251 28.6865 24.7199 30.9421C24.5313 30.8967 24.3393 30.8723 24.1403 30.8723C22.7506 30.8723 21.6228 32.0001 21.6228 33.3863V33.7564C20.7638 34.3186 19.835 34.783 18.8539 35.1356V32.6915C22.6703 30.991 25.3379 27.1641 25.3379 22.7227C25.3379 16.7066 20.4426 11.8112 14.4264 11.8112C8.41024 11.8112 3.51491 16.7066 3.51491 22.7227C3.51491 28.7389 8.41024 33.6342 14.4264 33.6342C15.5403 33.6342 16.6192 33.4666 17.6318 33.1524V35.5058C16.6052 35.7641 15.5333 35.9003 14.4264 35.9003V35.9038ZM23.4943 32.2759C23.3546 32.4086 23.215 32.5378 23.0683 32.6635C23.1766 32.5029 23.3232 32.3737 23.4943 32.2759ZM18.2428 24.8177C19.0599 24.8177 19.7268 25.4846 19.7268 26.3017C19.7268 27.1187 19.0599 27.7856 18.2428 27.7856C17.4258 27.7856 16.7588 27.1187 16.7588 26.3017C16.7588 25.4846 17.4258 24.8177 18.2428 24.8177ZM18.8539 28.9344C20.0515 28.6551 20.9489 27.5831 20.9489 26.3017C20.9489 24.8107 19.7338 23.5956 18.2428 23.5956C17.6562 23.5956 17.115 23.7842 16.6716 24.1054L15.2923 22.7262L16.6716 21.347C17.115 21.6647 17.6597 21.8568 18.2463 21.8568C19.7373 21.8568 20.9524 20.6417 20.9524 19.1507C20.9524 17.6598 19.7373 16.4447 18.2463 16.4447C16.7554 16.4447 15.5403 17.6598 15.5403 19.1507C15.5403 19.6116 15.6555 20.0481 15.8615 20.4287L14.4264 21.8638L12.9913 20.4322C13.1973 20.0516 13.3126 19.6151 13.3126 19.1507C13.3126 17.6598 12.0975 16.4447 10.6065 16.4447C9.11556 16.4447 7.90046 17.6598 7.90046 19.1507C7.90046 20.6417 9.11556 21.8568 10.6065 21.8568C11.1931 21.8568 11.7343 21.6682 12.1778 21.347L13.557 22.7262L12.1778 24.1054C11.7343 23.7877 11.1896 23.5956 10.603 23.5956C9.11207 23.5956 7.89697 24.8107 7.89697 26.3017C7.89697 27.7926 9.11207 29.0077 10.603 29.0077C12.094 29.0077 13.3091 27.7926 13.3091 26.3017C13.3091 25.8408 13.1938 25.4043 12.9878 25.0237L14.4229 23.5886L15.858 25.0202C15.652 25.4008 15.5368 25.8373 15.5368 26.3017C15.5368 27.5831 16.4341 28.6551 17.6318 28.9344V31.8674C16.6262 32.2201 15.5507 32.4156 14.4264 32.4156C9.08414 32.4156 4.737 28.0685 4.737 22.7262C4.737 17.3839 9.08414 13.0368 14.4264 13.0368C19.7687 13.0368 24.1158 17.3839 24.1158 22.7262C24.1158 26.4728 21.9754 29.7305 18.8539 31.3402V28.9379V28.9344ZM16.7588 19.1472C16.7588 18.3302 17.4258 17.6633 18.2428 17.6633C19.0599 17.6633 19.7268 18.3302 19.7268 19.1472C19.7268 19.9643 19.0599 20.6312 18.2428 20.6312C17.4258 20.6312 16.7588 19.9643 16.7588 19.1472ZM10.61 20.6312C9.79295 20.6312 9.12604 19.9643 9.12604 19.1472C9.12604 18.3302 9.79295 17.6633 10.61 17.6633C11.4271 17.6633 12.094 18.3302 12.094 19.1472C12.094 19.9643 11.4271 20.6312 10.61 20.6312ZM12.094 26.3017C12.094 27.1187 11.4271 27.7856 10.61 27.7856C9.79295 27.7856 9.12604 27.1187 9.12604 26.3017C9.12604 25.4846 9.79295 24.8177 10.61 24.8177C11.4271 24.8177 12.094 25.4846 12.094 26.3017ZM21.6228 37.7719C21.6228 38.4842 21.0431 39.0638 20.3308 39.0638H20.1493C19.4335 39.0638 18.8539 38.4842 18.8539 37.7719V36.4276C19.8245 36.1133 20.7533 35.6978 21.6228 35.1915V37.7719ZM34.3709 5.9871H34.3639H34.3569C33.2885 5.9871 32.6041 5.48429 32.6041 5.13862C32.6041 4.79294 33.2885 4.29014 34.3639 4.29014C35.4393 4.29014 36.1272 4.79294 36.1272 5.13862C36.1272 5.48429 35.4428 5.9836 34.3744 5.9871H34.3709ZM36.1516 7.76087C35.8339 7.95291 35.4393 8.13099 34.9714 8.22526V7.16728C36.3437 6.97524 37.3458 6.1547 37.3458 5.13862C37.3458 3.97589 36.0364 3.06805 34.3604 3.06805C32.6844 3.06805 31.3785 3.97938 31.3785 5.13862C31.3785 6.1547 32.3806 6.97873 33.7494 7.16728V8.25669C33.2954 8.19034 32.8031 8.0402 32.2689 7.76785C28.8715 6.029 25.921 5.9871 25.7918 5.9871H4.12595C2.5547 5.9871 1.76209 5.47382 1.41292 5.13862C1.76209 4.80691 2.55819 4.29014 4.12595 4.29014H25.7953C25.9175 4.29014 28.8715 4.24824 32.2689 2.50938C34.0112 1.619 35.3416 2.02404 36.1551 2.51986C37.2725 3.20423 37.9394 4.38791 37.9394 5.14211C37.9394 5.89631 37.2725 7.07999 36.1516 7.76436V7.76087Z" fill="#1E1E1E"/>
</svg>
