<svg width="19" height="31" viewBox="0 0 19 31" fill="none" xmlns="http://www.w3.org/2000/svg">
<path d="M18.6354 21.8838C17.7325 20.3188 14.4633 14.6532 14.3881 14.5328C14.2602 14.3297 14.0457 14.2244 13.8351 14.2244H12.6726V11.1132C12.6726 10.3345 12.0406 9.70244 11.2619 9.70244H10.2612V8.0923C12.1046 7.78006 13.5115 6.16993 13.5115 4.23626V4.02935C13.5115 1.96402 11.8299 0.28241 9.7646 0.28241C7.69927 0.28241 6.01766 1.96402 6.01766 4.02935C6.01766 4.39427 6.31109 4.6877 6.67601 4.6877C7.04092 4.6877 7.33435 4.39427 7.33435 4.02935C7.33435 2.69008 8.42533 1.59911 9.7646 1.59911C11.1039 1.59911 12.1948 2.69008 12.1948 4.02935V4.23626C12.1948 5.66582 11.0324 6.82827 9.60283 6.82827C9.23792 6.82827 8.94449 7.12171 8.94449 7.48662V9.69868H7.94756C7.16883 9.69868 6.53681 10.3307 6.53681 11.1094V14.2206H5.37059C5.1524 14.2206 4.92292 14.3372 4.79877 14.5516L0.56653 21.8838C0.45367 22.0794 0.449908 22.339 0.56653 22.5421L4.79877 29.8742C4.91163 30.0661 5.12606 30.2053 5.36683 30.2053C5.40445 30.2053 14.2527 30.2053 13.8313 30.2053C14.0758 30.2053 14.2903 30.0661 14.3994 29.8742L18.6316 22.5421C18.7482 22.339 18.7445 22.0794 18.6316 21.8838H18.6354ZM13.8313 28.2265L11.9842 25.0288L13.2294 22.8694H16.9237L13.8313 28.2265ZM2.27447 22.8732H5.96875L7.21397 25.0326L5.36683 28.2302L2.27447 22.8732ZM5.36683 16.1994L7.21397 19.3971L5.96875 21.5565H2.27447L5.36683 16.1994ZM12.6914 15.541L10.8443 18.7387H8.35385L6.50671 15.541H12.6914ZM10.8443 24.3704H8.35385L7.10864 22.2111L8.35385 20.0517H10.8443L12.0895 22.2111L10.8443 24.3704ZM8.35385 25.6871H10.8443L12.6914 28.8848H6.50671L8.35385 25.6871ZM13.2332 21.5565L11.9879 19.3971L13.8351 16.1994L16.9274 21.5565H13.2332ZM7.84975 11.1132C7.84975 11.0605 7.89113 11.0191 7.9438 11.0191C8.03408 11.0191 11.3785 11.0191 11.2581 11.0191C11.3108 11.0191 11.3522 11.0605 11.3522 11.1132V14.2244H7.84975V11.1132Z" fill="#1E1E1E"/>
</svg>
