<svg width="42" height="42" viewBox="0 0 42 42" fill="none" xmlns="http://www.w3.org/2000/svg">
<path d="M14.8216 13.8575H11.5628C11.1147 13.8575 10.748 14.2241 10.748 14.6722V17.9311C10.748 18.3792 11.1147 18.7458 11.5628 18.7458H14.8216C15.2697 18.7458 15.6363 18.3792 15.6363 17.9311V14.6722C15.6363 14.2241 15.2697 13.8575 14.8216 13.8575ZM14.0069 17.1163H12.3775V15.4869H14.0069V17.1163Z" fill="#1E1E1E"/>
<path d="M21.3392 13.8575H18.0803C17.6322 13.8575 17.2656 14.2241 17.2656 14.6722V17.9311C17.2656 18.3792 17.6322 18.7458 18.0803 18.7458H21.3392C21.7873 18.7458 22.1539 18.3792 22.1539 17.9311V14.6722C22.1539 14.2241 21.7873 13.8575 21.3392 13.8575ZM20.5245 17.1163H18.8951V15.4869H20.5245V17.1163Z" fill="#1E1E1E"/>
<path d="M27.8568 13.8575H24.5979C24.1498 13.8575 23.7832 14.2241 23.7832 14.6722V17.9311C23.7832 18.3792 24.1498 18.7458 24.5979 18.7458H27.8568C28.3049 18.7458 28.6715 18.3792 28.6715 17.9311V14.6722C28.6715 14.2241 28.3049 13.8575 27.8568 13.8575ZM27.0421 17.1163H25.4126V15.4869H27.0421V17.1163Z" fill="#1E1E1E"/>
<path d="M14.8216 20.3752H11.5628C11.1147 20.3752 10.748 20.7418 10.748 21.1899V24.4488C10.748 24.8969 11.1147 25.2635 11.5628 25.2635H14.8216C15.2697 25.2635 15.6363 24.8969 15.6363 24.4488V21.1899C15.6363 20.7418 15.2697 20.3752 14.8216 20.3752ZM14.0069 23.634H12.3775V22.0046H14.0069V23.634Z" fill="#1E1E1E"/>
<path d="M21.3392 20.3752H18.0803C17.6322 20.3752 17.2656 20.7418 17.2656 21.1899V24.4488C17.2656 24.8969 17.6322 25.2635 18.0803 25.2635H21.3392C21.7873 25.2635 22.1539 24.8969 22.1539 24.4488V21.1899C22.1539 20.7418 21.7873 20.3752 21.3392 20.3752ZM20.5245 23.634H18.8951V22.0046H20.5245V23.634Z" fill="#1E1E1E"/>
<path d="M27.8568 20.3752H24.5979C24.1498 20.3752 23.7832 20.7418 23.7832 21.1899V24.4488C23.7832 24.8969 24.1498 25.2635 24.5979 25.2635H27.8568C28.3049 25.2635 28.6715 24.8969 28.6715 24.4488V21.1899C28.6715 20.7418 28.3049 20.3752 27.8568 20.3752ZM27.0421 23.634H25.4126V22.0046H27.0421V23.634Z" fill="#1E1E1E"/>
<path d="M14.8216 26.8929H11.5628C11.1147 26.8929 10.748 27.2595 10.748 27.7076V30.9665C10.748 31.4146 11.1147 31.7812 11.5628 31.7812H14.8216C15.2697 31.7812 15.6363 31.4146 15.6363 30.9665V27.7076C15.6363 27.2595 15.2697 26.8929 14.8216 26.8929ZM14.0069 30.1517H12.3775V28.5223H14.0069V30.1517Z" fill="#1E1E1E"/>
<path d="M21.3392 26.8929H18.0803C17.6322 26.8929 17.2656 27.2595 17.2656 27.7076V30.9665C17.2656 31.4146 17.6322 31.7812 18.0803 31.7812H21.3392C21.7873 31.7812 22.1539 31.4146 22.1539 30.9665V27.7076C22.1539 27.2595 21.7873 26.8929 21.3392 26.8929ZM20.5245 30.1517H18.8951V28.5223H20.5245V30.1517Z" fill="#1E1E1E"/>
<path d="M27.8568 26.8929H24.5979C24.1498 26.8929 23.7832 27.2595 23.7832 27.7076V30.9665C23.7832 31.4146 24.1498 31.7812 24.5979 31.7812H27.8568C28.3049 31.7812 28.6715 31.4146 28.6715 30.9665V27.7076C28.6715 27.2595 28.3049 26.8929 27.8568 26.8929ZM27.0421 30.1517H25.4126V28.5223H27.0421V30.1517Z" fill="#1E1E1E"/>
<path d="M31.9319 6.525C32.3819 6.525 32.7466 6.16024 32.7466 5.71029C32.7466 5.26033 32.3819 4.89557 31.9319 4.89557C31.4819 4.89557 31.1172 5.26033 31.1172 5.71029C31.1172 6.16024 31.4819 6.525 31.9319 6.525Z" fill="#1E1E1E"/>
<path d="M36.8186 11.4132C37.2686 11.4132 37.6333 11.0485 37.6333 10.5985C37.6333 10.1486 37.2686 9.78381 36.8186 9.78381C36.3687 9.78381 36.0039 10.1486 36.0039 10.5985C36.0039 11.0485 36.3687 11.4132 36.8186 11.4132Z" fill="#1E1E1E"/>
<path d="M32.3801 12.1385C32.7793 12.334 33.2763 12.1792 33.4718 11.7718L36.7307 5.25411C36.9344 4.8549 36.7714 4.36607 36.3641 4.16239C35.9648 3.95871 35.476 4.12166 35.2723 4.52902L32.0135 11.0467C31.8098 11.446 31.9727 11.9348 32.3801 12.1385Z" fill="#1E1E1E"/>
<path d="M40.8937 39.9283H36.8202V34.8934C37.7652 34.5512 38.4496 33.655 38.4496 32.5959C38.4496 31.2516 37.3497 30.1517 36.0055 30.1517C34.6612 30.1517 33.5613 31.2516 33.5613 32.5959C33.5613 33.655 34.2457 34.5512 35.1907 34.8934V39.9283H31.9319V18.0614C32.9258 19.2508 33.708 20.0411 33.7976 20.1389C34.1235 20.4485 34.6286 20.4485 34.9545 20.1389C35.2315 19.8619 41.7085 13.3197 41.7085 8.15441C41.7085 4.11341 38.417 0.82196 34.376 0.82196C30.335 0.82196 27.0436 4.11341 27.0436 8.15441C27.0436 8.94468 27.2065 9.76754 27.4672 10.5986H8.3051C7.85701 10.5986 7.49039 10.9652 7.49039 11.4133V39.9283H4.23152V34.8934C5.17659 34.5512 5.86095 33.655 5.86095 32.5959C5.86095 31.2516 4.76109 30.1517 3.4168 30.1517C2.07252 30.1517 0.972656 31.2516 0.972656 32.5959C0.972656 33.655 1.65702 34.5512 2.60209 34.8934V39.9283H1.78737C1.33928 39.9283 0.972656 40.295 0.972656 40.7431C0.972656 41.1911 1.33928 41.5578 1.78737 41.5578H40.8937C41.3418 41.5578 41.7085 41.1911 41.7085 40.7431C41.7085 40.295 41.3418 39.9283 40.8937 39.9283ZM3.4168 33.4106C2.96871 33.4106 2.60209 33.044 2.60209 32.5959C2.60209 32.1478 2.96871 31.7812 3.4168 31.7812C3.8649 31.7812 4.23152 32.1478 4.23152 32.5959C4.23152 33.044 3.8649 33.4106 3.4168 33.4106ZM18.8964 39.9283H14.8228V35.04H18.8964V39.9283ZM24.5994 39.9283H20.5258V35.04H24.5994V39.9283ZM30.3024 39.9283H26.2289V34.2253C26.2289 33.7772 25.8622 33.4106 25.4141 33.4106H14.0081C13.56 33.4106 13.1934 33.7772 13.1934 34.2253V39.9283H9.11982V12.228H28.0946C28.6974 13.5397 29.4959 14.8188 30.3024 15.9594V39.9283ZM29.3737 11.12C29.3737 11.12 29.3574 11.0874 29.3492 11.0711C28.9337 10.069 28.673 9.07504 28.673 8.15441C28.673 5.0096 31.2312 2.45139 34.376 2.45139C37.5208 2.45139 40.079 5.0096 40.079 8.15441C40.079 11.8288 35.9321 16.6845 34.376 18.3791C33.2191 17.1163 30.6202 14.0937 29.3737 11.12ZM36.0055 33.4106C35.5574 33.4106 35.1907 33.044 35.1907 32.5959C35.1907 32.1478 35.5574 31.7812 36.0055 31.7812C36.4535 31.7812 36.8202 32.1478 36.8202 32.5959C36.8202 33.044 36.4535 33.4106 36.0055 33.4106Z" fill="#1E1E1E"/>
</svg>
