<svg width="37" height="42" viewBox="0 0 37 42" fill="none" xmlns="http://www.w3.org/2000/svg">
<path d="M12.4009 0.722049C13.3066 0.722049 14.2123 0.730447 15.1201 0.71785C15.4969 0.711552 15.6575 0.864818 15.6639 1.23224C15.6832 2.47307 15.7303 3.7118 15.741 4.95263C15.7539 6.79393 14.2615 8.25521 12.3902 8.25941C10.5146 8.26151 9.03516 6.81282 9.03516 4.96312C9.03516 3.73699 9.06085 2.51296 9.05443 1.28683C9.05228 0.873216 9.21287 0.709452 9.6368 0.715751C10.5575 0.732547 11.4803 0.71995 12.4009 0.71995V0.722049ZM12.3817 4.48023C11.6152 4.48023 10.8508 4.48863 10.0843 4.47603C9.81023 4.47183 9.70317 4.55581 9.68605 4.83925C9.59612 6.33623 10.8508 7.62744 12.4095 7.61905C13.9425 7.61065 15.1715 6.31733 15.0773 4.83505C15.058 4.55161 14.951 4.47183 14.679 4.47603C13.9147 4.48863 13.1482 4.48023 12.3817 4.48023ZM9.7203 3.81258H14.9552V1.37081C13.2745 1.37081 11.6237 1.36661 9.97295 1.38131C9.88731 1.38131 9.73315 1.53877 9.73101 1.62695C9.71174 2.3429 9.7203 3.05884 9.7203 3.81048V3.81258Z" fill="#1E1E1E"/>
<path d="M12.3823 8.41478C11.4359 8.41478 10.5538 8.05995 9.89648 7.41749C9.23703 6.77083 8.87305 5.89742 8.87305 4.96103C8.87305 4.43824 8.87733 3.91546 8.88375 3.39267C8.89018 2.70192 8.8966 1.98808 8.89232 1.28683C8.89232 1.02649 8.94798 0.850125 9.07431 0.728351C9.19849 0.606578 9.38476 0.551989 9.63955 0.558288C10.2904 0.570885 10.9563 0.568786 11.5986 0.564587C12.1275 0.564587 12.6563 0.564587 13.1852 0.564587C13.8189 0.564587 14.4741 0.568786 15.1164 0.558288C15.5832 0.551989 15.8144 0.770342 15.823 1.22804C15.8316 1.75713 15.8444 2.28831 15.8573 2.8174C15.8744 3.51654 15.8937 4.23879 15.8979 4.94843C15.9044 5.87643 15.5468 6.74564 14.8895 7.3965C14.2279 8.04946 13.3393 8.41058 12.3887 8.41268H12.3823V8.41478ZM9.60744 0.873219C9.45542 0.873219 9.35479 0.898414 9.29912 0.953002C9.23917 1.00969 9.21134 1.11887 9.21348 1.28683C9.21776 1.99018 9.21134 2.70612 9.20491 3.39687C9.20063 3.91966 9.19635 4.44034 9.19421 4.96313C9.19421 5.81554 9.52394 6.60917 10.1234 7.19704C10.7187 7.78071 11.5216 8.10194 12.3823 8.10194H12.3887C13.2537 8.10194 14.063 7.77232 14.6625 7.17815C15.2599 6.58817 15.5853 5.79665 15.5789 4.95473C15.5746 4.24718 15.5554 3.52494 15.5382 2.82789C15.5254 2.29671 15.5104 1.76552 15.504 1.23644C15.4997 0.953002 15.4119 0.873219 15.1229 0.875319C14.4763 0.883717 13.8211 0.881618 13.1852 0.881618C12.6585 0.881618 12.1296 0.881618 11.6008 0.881618C10.9563 0.883717 10.2904 0.885817 9.63527 0.875319C9.62671 0.875319 9.61814 0.875319 9.60958 0.875319L9.60744 0.873219ZM12.393 7.77442C11.6072 7.77442 10.845 7.45319 10.3011 6.89051C9.7616 6.33203 9.47897 5.58039 9.52394 4.82876C9.54535 4.46974 9.72091 4.31437 10.087 4.31857C10.633 4.32697 11.1918 4.32487 11.7292 4.32487H12.3801H13.031C13.5706 4.32487 14.1273 4.32907 14.6754 4.31857C15.0522 4.31647 15.2149 4.46344 15.2363 4.82456C15.2856 5.572 15.0072 6.32363 14.4763 6.88211C13.941 7.44479 13.1873 7.77232 12.4101 7.77652H12.393V7.77442ZM10.0549 4.6314C9.88364 4.6314 9.85794 4.66289 9.8451 4.84555C9.80442 5.52161 10.0485 6.17037 10.5345 6.67216C11.0184 7.17185 11.695 7.45948 12.393 7.45948H12.408C13.0953 7.45529 13.7633 7.16555 14.2407 6.66586C14.7139 6.17037 14.958 5.50481 14.9173 4.84345C14.9045 4.6524 14.8745 4.6272 14.6818 4.6335C14.1315 4.6419 13.5727 4.6419 13.031 4.6398H12.3823H11.7314C11.1897 4.6398 10.633 4.644 10.0828 4.6335C10.0742 4.6335 10.0635 4.6335 10.0549 4.6335V4.6314ZM15.1164 3.96794H9.56033V3.28139C9.55819 2.71032 9.55605 2.16864 9.57104 1.62066C9.57532 1.44639 9.80014 1.22384 9.97142 1.22174C11.3374 1.20915 12.6713 1.21125 14.0844 1.21125H15.1164V3.96794ZM9.8815 3.65301H14.7953V1.52828H14.0844C12.6735 1.52828 11.3374 1.52828 9.97356 1.53877C9.96286 1.54717 9.89862 1.61436 9.88792 1.64375C9.87507 2.17494 9.87721 2.71242 9.87721 3.28139V3.65301H9.8815Z" fill="#1E1E1E"/>
<path d="M30.1325 13.6783C28.3597 13.672 26.9123 12.2465 26.9102 10.5101C26.9102 8.75492 28.3768 7.33143 30.1774 7.33773C31.9503 7.34403 33.3955 8.76752 33.3976 10.508C33.3976 12.2654 31.9353 13.6846 30.1325 13.6783ZM32.7232 10.4975C32.7168 9.10764 31.5777 7.98229 30.1667 7.97599C28.7408 7.96969 27.5803 9.11394 27.5867 10.5206C27.5932 11.9105 28.7344 13.0359 30.1432 13.0401C31.5734 13.0464 32.7296 11.9063 32.7232 10.4975Z" fill="#1E1E1E"/>
<path d="M30.1477 13.8358H30.1327C28.2678 13.8274 26.752 12.3368 26.752 10.5101C26.752 9.62414 27.1052 8.78852 27.7497 8.16076C28.3963 7.5288 29.2549 7.18237 30.1691 7.18237H30.182C32.0447 7.18867 33.5606 8.68145 33.5627 10.5101C33.5627 11.3983 33.2095 12.2318 32.5671 12.8595C31.9227 13.4894 31.0641 13.8379 30.1498 13.8379L30.1477 13.8358ZM30.167 7.49521C29.3384 7.49521 28.5612 7.81014 27.9745 8.38331C27.3921 8.95229 27.071 9.70812 27.071 10.5101C27.071 12.1646 28.4455 13.5146 30.1327 13.5209H30.1456C30.9742 13.5209 31.7514 13.206 32.3359 12.6349C32.9183 12.0659 33.2373 11.3101 33.2373 10.508C33.2373 8.85361 31.8627 7.5015 30.1777 7.49521H30.167ZM30.1541 13.1976H30.1434C28.6511 13.1913 27.4328 11.9903 27.4264 10.5206C27.4243 9.7963 27.709 9.11395 28.2314 8.60166C28.7474 8.09567 29.4283 7.81853 30.1541 7.81853H30.167C31.6593 7.82483 32.8776 9.02787 32.8819 10.4976C32.884 11.224 32.5992 11.9063 32.079 12.4165C31.5651 12.9204 30.88 13.1976 30.152 13.1976H30.1541ZM30.1541 8.13347C29.5139 8.13347 28.9144 8.37911 28.4584 8.82422C27.9959 9.27772 27.7433 9.87819 27.7476 10.5185C27.754 11.8161 28.8288 12.8763 30.1434 12.8826C30.7836 12.8868 31.396 12.6412 31.852 12.1919C32.3123 11.7405 32.565 11.1379 32.5607 10.4976C32.5564 9.20003 31.4816 8.13976 30.1648 8.13347H30.1541Z" fill="#1E1E1E"/>
<path d="M18.8196 28.1964V26.5483C18.5926 26.5483 18.355 26.5903 18.1409 26.5357C17.9482 26.4874 17.6506 26.3572 17.6292 26.2271C17.5778 25.9184 17.8732 25.9037 18.1173 25.9037C19.0251 25.9037 19.9308 25.9037 20.8386 25.9016C20.9286 25.9016 21.0163 25.8848 21.2069 25.868C20.4875 24.9883 20.89 24.2031 21.2776 23.399C22.2239 21.4317 23.1553 19.4581 24.0738 17.4804C24.6862 16.1619 25.7117 15.5299 27.1805 15.5383C29.2766 15.5488 31.3706 15.5383 33.4667 15.5425C35.4686 15.5446 36.7212 16.7665 36.7233 18.7233C36.7255 21.4989 36.7233 24.2745 36.7233 27.0501C36.7233 28.6121 35.7063 29.2966 34.2118 28.7486C34.184 28.7381 34.1519 28.7486 34.0641 28.7486C34.0641 28.9271 34.0641 29.1055 34.0641 29.2861C34.0641 32.3367 34.0684 35.3895 34.0641 38.4401C34.0619 39.7628 33.289 40.6656 32.0451 40.779C31.1972 40.8567 30.5377 40.483 30.0153 39.8132C29.5014 40.4725 28.8548 40.842 28.0241 40.7832C26.7973 40.6971 25.9729 39.788 25.9665 38.5262C25.9558 36.6555 25.9644 34.7848 25.9644 32.9141C25.9644 29.2798 25.9644 25.6455 25.9644 22.0112C25.9644 21.8495 25.9644 21.6879 25.9644 21.5262C25.9323 21.5178 25.898 21.5094 25.8659 21.501C25.7374 21.7529 25.6068 22.0028 25.4826 22.2547C24.9945 23.2478 24.5063 24.2409 24.0224 25.2361C23.6006 26.1053 22.9112 26.5546 21.9263 26.5588C21.8492 26.5588 21.7743 26.5735 21.6651 26.5861V28.2825C22.1211 28.2825 22.5536 28.2783 22.9861 28.2825C24.0952 28.2972 24.6498 28.8431 24.6519 29.937C24.6562 32.744 24.6262 35.549 24.6669 38.3561C24.684 39.5004 23.986 40.2226 22.862 40.1113C22.7099 40.0966 22.5558 40.1113 22.4359 40.1113C22.2068 40.4179 22.5472 40.9973 21.9905 40.991C21.4724 40.9868 21.7593 40.4515 21.5752 40.1113C21.1855 40.1113 20.7551 40.1113 20.3248 40.1113C19.6996 40.1113 19.0744 40.1176 18.4492 40.1092C18.2051 40.105 18.0659 40.1617 18.0724 40.4389C18.0766 40.6866 18.1387 41.0288 17.7276 41.0015C17.3786 40.9806 17.4279 40.674 17.4172 40.4305C17.4129 40.3423 17.3979 40.2541 17.3851 40.1344C17.2181 40.126 17.066 40.1176 16.914 40.1113C16.079 40.0756 15.4581 39.4983 15.4538 38.6753C15.4388 35.7002 15.441 32.7251 15.4538 29.7501C15.4581 28.9061 16.064 28.3287 16.9419 28.2909C17.5349 28.2657 18.1302 28.2741 18.7232 28.2636C18.7511 28.2636 18.7768 28.2363 18.8303 28.2069L18.8196 28.1964ZM26.6431 29.2609C26.6431 29.2609 26.6324 29.2609 26.626 29.2609C26.626 32.236 26.626 35.211 26.626 38.1861C26.626 38.4002 26.626 38.6165 26.6538 38.8285C26.7523 39.5949 27.3818 40.1302 28.1633 40.126C29.0582 40.1218 29.6727 39.4626 29.6727 38.4905C29.6749 34.642 29.6706 30.7936 29.6813 26.943C29.6813 26.6722 29.5421 26.2208 30.0132 26.2229C30.4863 26.225 30.3386 26.6722 30.3386 26.9451C30.3493 30.718 30.345 34.4888 30.345 38.2616C30.345 38.4149 30.3386 38.5682 30.3472 38.7214C30.3857 39.3681 30.8675 39.9392 31.4862 40.0861C32.1371 40.2394 32.8394 40.0001 33.1391 39.4164C33.3061 39.0931 33.3747 38.6858 33.3747 38.3183C33.3896 32.3997 33.3854 26.4811 33.3854 20.5625C33.3854 20.4239 33.3468 20.2707 33.3961 20.1531C33.4689 19.9788 33.5866 19.7143 33.7151 19.6954C34.0277 19.6513 34.0577 19.9284 34.0598 20.172C34.0598 20.2938 34.0598 20.4176 34.0598 20.5394C34.0641 22.7628 34.0598 24.9862 34.0791 27.2096C34.0855 27.8983 34.488 28.314 35.0661 28.314C35.6592 28.314 36.066 27.8563 36.066 27.1635C36.0703 24.3123 36.0724 21.459 36.066 18.6078C36.0617 17.1864 35.0768 16.1996 33.6252 16.1871C31.437 16.1703 29.2467 16.1787 27.0585 16.185C25.9687 16.1891 25.1786 16.6699 24.7204 17.6504C24.2644 18.6246 23.804 19.5967 23.3458 20.5688C22.757 21.8201 22.1575 23.0673 21.5794 24.3228C21.2883 24.9568 21.603 25.5867 22.2453 25.7169C22.7057 25.8093 23.1125 25.5678 23.3801 25.024C24.2344 23.2856 25.0801 21.543 25.9473 19.813C26.02 19.6702 26.2363 19.5967 26.3862 19.4896C26.4718 19.6492 26.6303 19.8088 26.6303 19.9683C26.6452 23.0652 26.641 26.162 26.641 29.2609H26.6431ZM23.986 34.2116C23.986 32.786 23.9882 31.3604 23.986 29.9349C23.986 29.1979 23.7205 28.9334 22.9754 28.9313C21.0206 28.9271 19.068 28.9271 17.1132 28.9313C16.383 28.9313 16.1004 29.2126 16.0983 29.9454C16.094 32.7818 16.094 35.6183 16.0983 38.4548C16.0983 39.177 16.3937 39.4605 17.1239 39.4605C19.0787 39.4647 21.0313 39.4647 22.9861 39.4605C23.7013 39.4605 23.9817 39.1833 23.9839 38.4884C23.9882 37.0628 23.9839 35.6372 23.9839 34.2116H23.986ZM19.5604 26.5693V28.2426H20.9435V26.5693H19.5604Z" fill="#1E1E1E"/>
<path d="M17.7601 41.1508C17.743 41.1508 17.7259 41.1508 17.7087 41.1508C17.257 41.1235 17.2527 40.7309 17.2505 40.521C17.2505 40.4895 17.2505 40.4601 17.2505 40.4307C17.2505 40.3824 17.242 40.332 17.2356 40.2774H17.2056C17.1007 40.2711 17 40.2648 16.8994 40.2606C15.968 40.2207 15.2893 39.551 15.285 38.6671C15.2722 35.7991 15.2722 32.8807 15.285 29.7419C15.2893 28.816 15.9488 28.1673 16.9272 28.1253C17.3169 28.1085 17.713 28.1064 18.0963 28.1043C18.2847 28.1043 18.4731 28.1022 18.6615 28.1001V26.7144C18.6487 26.7144 18.6358 26.7144 18.623 26.7144C18.4517 26.7228 18.2761 26.7333 18.1027 26.6892C18.0427 26.6745 17.5182 26.5359 17.4711 26.2525C17.4475 26.1139 17.4754 25.9984 17.5524 25.9102C17.6852 25.7591 17.9143 25.7465 18.1177 25.7465H18.6615C19.3873 25.7465 20.1132 25.7465 20.8368 25.7444C20.8625 25.7444 20.8882 25.7444 20.9161 25.7402C20.3787 24.8941 20.7469 24.1277 21.1045 23.3845L21.1302 23.332C22.0594 21.4004 22.9993 19.4101 23.9243 17.4155C24.5602 16.0466 25.6157 15.381 27.1509 15.381C27.1595 15.381 27.1702 15.381 27.1787 15.381C28.4955 15.3873 29.8101 15.3873 31.1247 15.3852C31.9041 15.3852 32.6835 15.3852 33.4628 15.3852C35.5675 15.3873 36.8778 16.666 36.88 18.7235C36.8821 21.3521 36.88 23.9829 36.88 26.6115V27.0503C36.88 27.8691 36.6166 28.4801 36.1177 28.8181C35.6317 29.1477 34.9765 29.1834 34.2186 28.921V31.9002C34.2186 34.0796 34.2186 36.2589 34.2186 38.4403C34.2165 39.8575 33.3857 40.8149 32.0518 40.9346C31.2618 41.006 30.5766 40.712 30.0071 40.0633C29.4526 40.6994 28.776 40.9955 28.0052 40.9388C26.6927 40.8464 25.8042 39.8764 25.7977 38.5264C25.7913 37.2016 25.7913 35.8768 25.7935 34.552V21.9715C25.7356 22.0891 25.6757 22.2046 25.6179 22.3242L25.3909 22.7861C24.9777 23.6259 24.5666 24.4637 24.1598 25.3056C23.708 26.2399 22.9522 26.7144 21.9181 26.7165C21.886 26.7165 21.8539 26.7207 21.8175 26.7249V28.1253H22.0808C22.3849 28.1253 22.6846 28.1232 22.9822 28.1253C24.1727 28.1421 24.8043 28.7677 24.8064 29.9372C24.8064 30.8673 24.8064 31.7974 24.8043 32.7275C24.8 34.5709 24.7957 36.4793 24.8214 38.3542C24.83 38.9883 24.6266 39.5258 24.2476 39.8659C23.8922 40.185 23.404 40.3257 22.8409 40.269C22.7446 40.2585 22.6418 40.2627 22.5519 40.2648C22.5433 40.2648 22.5369 40.2648 22.5283 40.2648C22.5005 40.3425 22.4983 40.4433 22.4962 40.542C22.4919 40.7687 22.4833 41.1466 21.993 41.1466H21.9845C21.5027 41.1424 21.492 40.7603 21.4856 40.5336C21.4835 40.4412 21.4813 40.3488 21.4599 40.2669H19.7749C19.3295 40.269 18.8842 40.2711 18.4388 40.2648C18.3061 40.2627 18.2676 40.2816 18.2504 40.2963C18.2312 40.3152 18.2226 40.3656 18.2226 40.4328V40.5084C18.2333 40.6826 18.2419 40.901 18.092 41.0417C18.0106 41.1193 17.8993 41.1571 17.758 41.1571L17.7601 41.1508ZM18.8178 26.3889H18.9784V28.2869L18.897 28.3331C18.882 28.3415 18.8713 28.3499 18.8606 28.3562C18.8264 28.3793 18.7793 28.4108 18.715 28.4108C18.5095 28.415 18.3018 28.415 18.0941 28.4171C17.7152 28.4192 17.3212 28.4213 16.9379 28.4381C16.1308 28.4717 15.6062 28.984 15.604 29.7419C15.5912 32.8807 15.5912 35.7991 15.604 38.665C15.6083 39.3851 16.1457 39.9121 16.9101 39.9436C17.0129 39.9478 17.1156 39.9541 17.2206 39.9583L17.5182 39.973L17.546 40.2144C17.5567 40.2879 17.5631 40.3509 17.5674 40.416C17.5674 40.4475 17.5674 40.4811 17.5674 40.5168C17.5696 40.7981 17.5995 40.8275 17.7259 40.8359C17.7965 40.8401 17.8458 40.8317 17.8672 40.8107C17.9121 40.7666 17.9078 40.6217 17.9036 40.5147V40.4328C17.8971 40.2711 17.9378 40.1514 18.0213 40.0675C18.1369 39.9541 18.3061 39.9415 18.441 39.9436C18.8842 39.9499 19.3274 39.9478 19.7706 39.9478H21.6633L21.7083 40.0297C21.7939 40.1871 21.7982 40.3635 21.8025 40.5189C21.811 40.8065 21.8325 40.8254 21.9823 40.8254C22.1429 40.8254 22.1643 40.8023 22.1707 40.5294C22.175 40.3593 22.1772 40.1682 22.2971 40.0108L22.3463 39.9457H22.4277C22.4619 39.9457 22.4983 39.9457 22.5369 39.9436C22.6375 39.9394 22.751 39.9373 22.8687 39.9478C23.3419 39.994 23.7423 39.8827 24.0271 39.6266C24.3418 39.3431 24.5067 38.9022 24.4981 38.35C24.4703 36.473 24.4745 34.5646 24.481 32.7191C24.4831 31.789 24.4853 30.8589 24.4831 29.9309C24.4831 28.9231 24.0014 28.4465 22.9758 28.4339C22.6803 28.4297 22.3827 28.4318 22.0808 28.4339H21.4963V26.4393L21.6398 26.4246C21.6762 26.4204 21.7083 26.4162 21.7361 26.412C21.8025 26.4036 21.8603 26.3952 21.9181 26.3952C22.8302 26.3931 23.4704 25.99 23.8708 25.1628C24.2797 24.3209 24.6908 23.4811 25.104 22.6434L25.331 22.1815C25.4166 22.0093 25.5044 21.8371 25.5922 21.665L25.7742 21.3101L26.1189 21.3983V34.5478C26.1168 35.8726 26.1146 37.1953 26.121 38.5201C26.1275 39.6958 26.894 40.5399 28.0309 40.6217C28.761 40.6742 29.3669 40.3761 29.8829 39.7147L30.0092 39.551L30.1377 39.7147C30.6666 40.3908 31.2853 40.6868 32.0261 40.6196C33.1802 40.5147 33.8974 39.679 33.8996 38.4382C33.9039 36.2589 33.9017 34.0796 33.9017 31.9002V28.5914H34.0623C34.0923 28.5914 34.1158 28.5914 34.133 28.5914C34.1758 28.5893 34.2186 28.5872 34.2657 28.604C34.9509 28.8559 35.5289 28.8412 35.9379 28.562C36.3447 28.2848 36.5609 27.7641 36.5609 27.0524V26.6136C36.5609 23.985 36.5609 21.3542 36.5609 18.7256C36.5609 16.8633 35.3727 15.7044 33.4649 15.7023C32.6856 15.7023 31.9062 15.7023 31.1269 15.7023C29.8101 15.7023 28.4934 15.7044 27.1787 15.6981C25.7592 15.696 24.8 16.2964 24.2176 17.5478C23.2905 19.5444 22.3506 21.5369 21.4214 23.4685L21.3957 23.5231C21.0167 24.3104 20.6891 24.9906 21.3314 25.7738L21.5177 26.0005L21.2222 26.0299C21.1537 26.0362 21.0981 26.0425 21.0531 26.0488C20.9632 26.0593 20.9011 26.0656 20.839 26.0656C20.1132 26.0656 19.3873 26.0656 18.6615 26.0656H18.1177C18.0427 26.0656 17.8415 26.0656 17.7965 26.1202C17.7794 26.1391 17.7837 26.1832 17.7879 26.2084C17.8094 26.242 17.9871 26.3428 18.1798 26.391C18.3061 26.4225 18.4495 26.4141 18.6016 26.4057C18.6744 26.4015 18.7472 26.3973 18.8178 26.3973V26.3889ZM31.8784 40.2921C31.7371 40.2921 31.5936 40.2753 31.448 40.2417C30.7608 40.078 30.2298 39.4439 30.1848 38.7322C30.1784 38.6188 30.1784 38.5075 30.1805 38.3941V38.264V35.86C30.1805 32.8891 30.1805 29.9183 30.1741 26.9474C30.1741 26.8928 30.1784 26.8298 30.1848 26.7669C30.1955 26.6388 30.2105 26.4792 30.157 26.4225C30.127 26.3889 30.0563 26.3847 30.005 26.3826C29.9536 26.3826 29.8893 26.3889 29.8594 26.4225C29.8037 26.4813 29.8165 26.643 29.8272 26.7732C29.8315 26.834 29.8358 26.8928 29.8358 26.9474C29.8294 29.5739 29.8272 32.1984 29.8272 34.8249C29.8272 36.0489 29.8272 37.2709 29.8272 38.4949C29.8272 39.5468 29.14 40.2837 28.1572 40.2879H28.1486C27.2922 40.2879 26.5942 39.6853 26.4872 38.8518C26.4593 38.6335 26.4593 38.413 26.4593 38.1989C26.4593 35.7109 26.4593 33.2314 26.4593 30.7518V29.1078H26.4765V27.6865C26.4765 25.1586 26.4765 22.5447 26.4657 19.9727C26.4657 19.9119 26.4037 19.8195 26.3437 19.7334C26.3394 19.7271 26.333 19.7187 26.3287 19.7124C26.3202 19.7166 26.3137 19.7208 26.3052 19.725C26.2152 19.7754 26.1146 19.8321 26.0868 19.8867C25.483 21.0918 24.8792 22.3242 24.2947 23.5147C24.0356 24.0417 23.7787 24.5707 23.5196 25.0977C23.222 25.7003 22.7446 25.9837 22.2071 25.8767C21.856 25.8053 21.5777 25.6037 21.4256 25.3077C21.2651 24.9969 21.2651 24.6169 21.4256 24.2621C21.8325 23.3803 22.2542 22.488 22.6632 21.6251C22.8388 21.2535 23.0165 20.8797 23.192 20.5081L23.5967 19.6515C23.92 18.965 24.2455 18.2784 24.5666 17.5898C25.0484 16.5589 25.8855 16.0361 27.0503 16.0319H27.5042C29.5082 16.0235 31.5808 16.0193 33.6191 16.034C35.1478 16.0466 36.2162 17.1069 36.2205 18.6101C36.2269 21.5201 36.2248 24.5204 36.2205 27.1679C36.2205 27.9363 35.7431 28.4759 35.0601 28.4759C34.3813 28.4759 33.9189 27.9699 33.9124 27.2162C33.8974 25.6058 33.8974 23.9682 33.8953 22.383V20.422C33.8932 20.3402 33.8953 20.2604 33.8932 20.1785C33.8932 20.1155 33.8889 19.9203 33.8311 19.8699C33.8097 19.851 33.7647 19.8531 33.7326 19.8573C33.724 19.8657 33.6619 19.9245 33.5399 20.2184C33.5206 20.2667 33.527 20.3486 33.5335 20.4262C33.5377 20.4745 33.542 20.5228 33.542 20.569V23.8884C33.542 28.6208 33.542 33.5127 33.5313 38.3269C33.5313 38.7657 33.4414 39.1815 33.2787 39.4964C33.0196 40.0003 32.4758 40.2984 31.8741 40.2984L31.8784 40.2921ZM30.0071 26.0677H30.0114C30.1784 26.0677 30.309 26.116 30.3946 26.2105C30.5424 26.37 30.521 26.6052 30.5038 26.7942C30.4995 26.8487 30.4931 26.9012 30.4953 26.9474C30.5038 29.9183 30.5017 32.8891 30.5017 35.86V38.3983C30.4995 38.5033 30.4974 38.6083 30.5038 38.7154C30.5381 39.2927 30.9663 39.805 31.5208 39.9373C32.1353 40.0822 32.7413 39.8407 32.9939 39.3515C33.1352 39.0807 33.2123 38.7154 33.2123 38.3227C33.223 33.5106 33.223 28.6166 33.223 23.8863V20.5669C33.223 20.5291 33.2187 20.4892 33.2166 20.4493C33.208 20.3381 33.1973 20.2142 33.2444 20.0966C33.3729 19.7838 33.4992 19.5696 33.6876 19.5444C33.8311 19.5234 33.9488 19.5528 34.0409 19.6284C34.1908 19.7544 34.2143 19.9643 34.2165 20.1743C34.2165 20.2562 34.2165 20.3402 34.2165 20.422V22.383C34.2207 23.9661 34.2229 25.6037 34.2357 27.2141C34.24 27.7998 34.5569 28.1631 35.0622 28.1631C35.5718 28.1631 35.9015 27.7725 35.9015 27.17C35.9036 24.5225 35.9079 21.5222 35.9015 18.6143C35.8972 17.2727 34.9808 16.3615 33.6191 16.351C31.5829 16.3342 29.5104 16.3405 27.5085 16.3468H27.0545C26.0097 16.351 25.2924 16.8003 24.8621 17.722C24.5409 18.4107 24.2155 19.0972 23.8922 19.7838L23.4875 20.6404C23.3119 21.0141 23.1342 21.3857 22.9587 21.7574C22.5497 22.6203 22.1279 23.5105 21.7211 24.3923C21.5969 24.6631 21.5948 24.9361 21.7126 25.1649C21.8217 25.3728 22.0209 25.5155 22.2735 25.568C22.6589 25.6457 23.0015 25.4316 23.2327 24.9613C23.4918 24.4343 23.7509 23.9073 24.0078 23.3803C24.5923 22.1878 25.1939 20.9553 25.7999 19.7502C25.8705 19.6095 26.0161 19.5276 26.1467 19.4542C26.196 19.4269 26.2452 19.3996 26.288 19.3681L26.4379 19.261L26.5236 19.4227C26.5471 19.4689 26.5792 19.515 26.6113 19.5612C26.6927 19.6809 26.7869 19.8174 26.7869 19.9748C26.7998 22.5468 26.7976 25.1607 26.7976 27.6907V29.427H26.7805V30.756C26.7805 33.2356 26.7805 35.7151 26.7805 38.1926C26.7805 38.4067 26.7805 38.6167 26.8062 38.8161C26.894 39.5006 27.4464 39.9751 28.1486 39.9751H28.1551C28.9623 39.9709 29.5039 39.3788 29.5039 38.497C29.5039 37.273 29.5039 36.051 29.5039 34.827C29.5039 32.2005 29.5039 29.5739 29.5125 26.9495C29.5125 26.9054 29.5082 26.855 29.5039 26.8026C29.489 26.6115 29.4697 26.3721 29.6196 26.2126C29.7073 26.1202 29.8358 26.0719 30.0007 26.0719L30.0071 26.0677ZM20.0511 39.6224C19.0726 39.6224 18.0963 39.6224 17.1199 39.6203C16.302 39.6203 15.9359 39.2591 15.9338 38.4571C15.9295 35.6206 15.9295 32.7841 15.9338 29.9477C15.9338 29.1288 16.2871 28.7782 17.1092 28.7761C19.064 28.7719 21.0167 28.7719 22.9715 28.7761C23.8022 28.7761 24.1405 29.1141 24.1427 29.9351C24.1448 30.9491 24.1427 31.9611 24.1427 32.9752V34.2139V35.524C24.1427 36.5129 24.1427 37.5039 24.1427 38.4928C24.1405 39.2717 23.783 39.6203 22.9844 39.6224C22.008 39.6224 21.0317 39.6245 20.0532 39.6245L20.0511 39.6224ZM20.0382 29.0869C19.0619 29.0869 18.0856 29.0869 17.1071 29.089C16.4605 29.089 16.2528 29.2989 16.2528 29.9456C16.2485 32.782 16.2485 35.6185 16.2528 38.4529C16.2528 39.087 16.4712 39.3011 17.1178 39.3032C19.0726 39.3074 21.0253 39.3074 22.9801 39.3032C23.6053 39.3032 23.8172 39.0975 23.8194 38.4886C23.8215 37.4997 23.8215 36.5108 23.8194 35.522V34.2118V32.9731C23.8194 31.9611 23.8194 30.947 23.8194 29.9351C23.8194 29.28 23.6267 29.0911 22.9694 29.089C21.993 29.089 21.0146 29.0869 20.0382 29.0869ZM21.1002 28.4024H19.3959V26.4141H21.1002V28.4024ZM19.7171 28.0875H20.779V26.7291H19.7171V28.0875Z" fill="#1E1E1E"/>
<path d="M1.43383 22.5088V23.1261C1.43383 28.4631 1.43383 33.798 1.42955 39.1351C1.42955 39.4017 1.55801 39.8111 1.11053 39.8195C0.648054 39.8279 0.787224 39.4101 0.787224 39.1477C0.780801 33.0758 0.782942 27.0039 0.782942 20.932C0.782942 20.4617 1.03131 20.2259 1.52804 20.2245C2.82339 20.2245 4.11875 20.2245 5.4869 20.2245C5.4869 20.0166 5.4869 19.8403 5.4869 19.6639C5.4869 17.3334 5.48476 15.0029 5.4869 12.6724C5.48904 10.9319 6.72658 9.74357 8.5101 9.74777C10.9167 9.75197 13.3233 9.75616 15.7298 9.74777C17.5262 9.74147 18.768 10.934 18.7723 12.7081C18.7787 15.0071 18.7723 17.3082 18.7723 19.6072C18.7723 19.7899 18.7723 19.9725 18.7723 20.2245C19.3568 20.2245 19.9135 20.2245 20.4702 20.2245C20.862 20.2245 21.256 20.1972 21.6414 20.2413C21.7698 20.256 21.879 20.4512 21.9968 20.5646C21.8812 20.6612 21.7784 20.7935 21.6435 20.8459C21.5215 20.8942 21.3673 20.8585 21.226 20.8585C14.8477 20.8585 8.46728 20.8585 2.089 20.8585H1.46166V21.8726H2.01406C6.56386 21.8726 11.1137 21.8726 15.6635 21.8726C15.8048 21.8726 15.9632 21.8369 16.081 21.8915C16.1987 21.9461 16.3486 22.091 16.3465 22.1918C16.3443 22.2967 16.1944 22.4374 16.0745 22.4899C15.9568 22.5424 15.7983 22.5067 15.657 22.5067C11.1222 22.5067 6.58955 22.5067 2.05474 22.5067H1.43383V22.5088ZM8.92547 20.1951H15.3359C15.3359 20.004 15.3359 19.8403 15.3359 19.6744C15.3359 18.0641 15.3359 16.4537 15.3359 14.8455C15.3359 14.6145 15.308 14.3416 15.6442 14.329C16.021 14.3143 15.9868 14.6103 15.9868 14.8539C15.9868 16.4642 15.9868 18.0746 15.9868 19.6828C15.9868 19.8466 15.9868 20.0103 15.9868 20.1972H18.1064C18.1064 20.0019 18.1064 19.8214 18.1064 19.6429C18.1064 17.388 18.1064 15.1352 18.1064 12.8803C18.1064 12.6808 18.1021 12.4814 18.0807 12.284C17.9908 11.4127 17.3656 10.7073 16.5006 10.491C16.0745 10.3839 15.7577 10.4364 15.475 10.8584C14.5929 12.179 13.6594 13.464 12.743 14.7615C12.3555 15.3095 12.2206 15.3095 11.8309 14.7573C10.8867 13.422 9.95319 12.0804 8.99185 10.7576C8.88051 10.6023 8.63 10.4637 8.43945 10.4574C7.0456 10.4112 6.14207 11.2825 6.13993 12.6577C6.1335 15.0197 6.13993 17.3796 6.13993 19.7416C6.13993 19.8886 6.15706 20.0376 6.16562 20.1951H8.26174C8.26174 19.9893 8.26174 19.8088 8.26174 19.6282C8.26174 18.1102 8.26174 16.5923 8.26174 15.0743C8.26174 14.9357 8.22748 14.7825 8.27887 14.6649C8.33668 14.5326 8.47156 14.4339 8.5722 14.3227C8.68781 14.4402 8.83983 14.5389 8.91049 14.6775C8.96616 14.7888 8.92547 14.9483 8.92547 15.0869C8.92547 16.7728 8.92547 18.4588 8.92547 20.1951ZM14.9462 10.4868C13.8607 10.3104 13.3896 10.3818 13.1648 10.7346C12.6467 11.545 12.6702 11.9733 13.2997 12.8278C13.8435 12.0552 14.3767 11.2951 14.9483 10.4868H14.9462ZM9.58493 10.428C9.91894 10.9046 10.1823 11.2804 10.4456 11.6542C10.7154 12.0363 10.9873 12.4184 11.3042 12.8677C11.4134 12.6031 11.4562 12.4226 11.5526 12.2756C11.953 11.6646 11.7239 11.1419 11.3256 10.6506C11.2421 10.5477 11.088 10.4469 10.9595 10.4385C10.542 10.4112 10.1202 10.428 9.58493 10.428ZM12.2805 14.1967C12.8693 13.5857 12.8651 13.2918 12.2591 12.3806C11.6875 13.4052 11.6896 13.5395 12.2805 14.1967Z" fill="#1E1E1E"/>
<path d="M1.0994 39.975C0.93668 39.975 0.812497 39.9288 0.726854 39.8406C0.583402 39.6895 0.602671 39.4669 0.617659 39.2885C0.621941 39.2381 0.626223 39.1898 0.626223 39.1478C0.6198 33.668 0.6198 28.1882 0.621941 22.7084V20.9322C0.621941 20.1406 0.69902 20.0671 1.52762 20.0671H5.3259V17.5855C5.3259 15.9478 5.3259 14.3102 5.3259 12.6726C5.3259 11.7761 5.63635 11.0055 6.21659 10.4449C6.79468 9.88647 7.58474 9.59253 8.50112 9.59253H8.50968C10.6615 9.59673 13.2008 9.60093 15.7294 9.59253H15.7444C16.6651 9.59253 17.4573 9.88856 18.0354 10.4512C18.6199 11.0181 18.9303 11.7991 18.9325 12.7104C18.9367 14.3144 18.9367 15.9185 18.9346 17.5225V20.0713H20.4719C20.5768 20.0755 20.686 20.0713 20.7931 20.0671C21.0778 20.0629 21.3712 20.0566 21.6623 20.0902C21.8165 20.107 21.9214 20.2351 22.0156 20.3485C22.0477 20.3884 22.0799 20.4262 22.112 20.4577L22.2383 20.5773L22.1056 20.6886C22.0734 20.7159 22.0413 20.7453 22.0113 20.7768C21.9278 20.8566 21.8336 20.949 21.7094 20.9972C21.5895 21.0455 21.4611 21.035 21.3476 21.0266C21.3091 21.0245 21.2684 21.0203 21.232 21.0203H1.62611V21.7195H15.6652C15.7016 21.7195 15.7401 21.7174 15.7765 21.7153C15.8943 21.7069 16.027 21.6985 16.1491 21.7531C16.2968 21.8203 16.5109 22.0092 16.5066 22.2003C16.5023 22.3913 16.2904 22.5719 16.1405 22.6391C16.0206 22.6937 15.8878 22.6832 15.7701 22.6748C15.7316 22.6727 15.693 22.6685 15.6566 22.6685H1.59613V25.8619C1.59613 30.2877 1.59613 34.7115 1.59185 39.1373C1.59185 39.1814 1.59613 39.2297 1.60042 39.278C1.6154 39.4585 1.63253 39.6832 1.48908 39.8364C1.40344 39.9288 1.27711 39.975 1.11439 39.9792C1.11011 39.9792 1.10583 39.9792 1.0994 39.9792V39.975ZM4.46304 20.38H1.52762C1.25142 20.38 1.03517 20.38 0.988066 20.4241C0.943103 20.4661 0.943103 20.6802 0.943103 20.928V22.7042C0.943103 28.184 0.943103 33.6638 0.947385 39.1436C0.947385 39.1961 0.943103 39.2528 0.93668 39.3116C0.925975 39.4228 0.913128 39.574 0.960232 39.6223C0.981643 39.6454 1.03731 39.6601 1.10797 39.6559C1.15721 39.6559 1.22144 39.6475 1.25142 39.616C1.30066 39.5635 1.28782 39.4144 1.27925 39.2948C1.27497 39.236 1.27069 39.1814 1.27069 39.1289C1.27497 34.7031 1.27497 30.2793 1.27497 25.8535V22.3451H15.6588C15.7037 22.3451 15.7487 22.3472 15.7936 22.3514C15.8771 22.3577 15.9628 22.364 16.0078 22.3431C16.0913 22.3053 16.1769 22.215 16.1855 22.1793C16.1769 22.1562 16.0934 22.0659 16.0142 22.0302C15.9671 22.0092 15.8814 22.0155 15.8001 22.0218C15.7551 22.0239 15.7101 22.0281 15.6673 22.0281H1.30495V20.6991H21.2298C21.2748 20.6991 21.3241 20.7033 21.3712 20.7054C21.4525 20.7117 21.5382 20.718 21.5874 20.697C21.6495 20.6718 21.7116 20.613 21.778 20.55C21.7737 20.5458 21.7694 20.5416 21.7673 20.5374C21.7266 20.4871 21.6559 20.4031 21.6238 20.3926C21.3583 20.3632 21.0885 20.3674 20.8016 20.3737C20.6924 20.3758 20.5875 20.38 20.474 20.3779H18.6156V17.5141C18.6156 15.9101 18.6156 14.306 18.6134 12.702C18.6113 11.8768 18.333 11.1714 17.8127 10.6654C17.2945 10.1636 16.5816 9.89906 15.7465 9.89906H15.7337C13.2051 9.90746 10.6636 9.90536 8.51183 9.89906H8.50326C7.67252 9.89906 6.96168 10.1636 6.44354 10.6612C5.9254 11.163 5.6492 11.8558 5.6492 12.6663C5.64706 14.3039 5.6492 15.9415 5.6492 17.5792V20.3758H4.46518L4.46304 20.38ZM18.2687 20.3548H15.8279V18.5681C15.8279 17.3293 15.8279 16.0906 15.8279 14.8519V14.791C15.8279 14.6839 15.83 14.5516 15.7872 14.5097C15.7658 14.4887 15.7187 14.4782 15.6523 14.4824C15.5239 14.4866 15.496 14.5139 15.4982 14.791V14.8414V20.3485H8.76661V15.0828C8.76661 15.0366 8.7709 14.9905 8.77518 14.9422C8.7816 14.8666 8.78802 14.7826 8.76875 14.7448C8.7345 14.6755 8.65956 14.6104 8.58034 14.5412C8.51611 14.6041 8.45616 14.665 8.42832 14.7259C8.40691 14.7763 8.41334 14.8624 8.41762 14.9443C8.41976 14.9884 8.42404 15.0324 8.42404 15.0744V20.3527H6.01532L6.00676 20.2036C6.00462 20.1532 6.00034 20.1049 5.99606 20.0587C5.98749 19.9517 5.98107 19.8467 5.98107 19.7417V18.5387C5.97893 16.5777 5.97679 14.6188 5.98107 12.6579C5.98107 11.9314 6.22087 11.3247 6.66835 10.9005C7.10942 10.4827 7.72177 10.2749 8.44759 10.298C8.68525 10.3064 8.98286 10.468 9.12632 10.6654C9.83073 11.6354 10.533 12.6306 11.2096 13.5943C11.4601 13.9512 11.7127 14.3081 11.9654 14.665C12.1667 14.9506 12.2544 15.0114 12.2908 15.0114C12.3272 15.0114 12.4129 14.9527 12.612 14.6692C12.8475 14.3354 13.0852 14.0016 13.3228 13.6677C13.9951 12.7229 14.6888 11.7467 15.344 10.7683C15.7123 10.2161 16.1555 10.2392 16.543 10.3358C17.4787 10.5688 18.1467 11.3268 18.243 12.2652C18.2666 12.4836 18.2687 12.6978 18.2687 12.8783C18.2687 14.6818 18.2687 16.4853 18.2687 18.2888V20.3548ZM16.1491 20.0399H17.9476V18.2888C17.9476 16.4853 17.9476 14.6818 17.9476 12.8804C17.9476 12.7083 17.9454 12.5046 17.924 12.2988C17.8405 11.4947 17.2667 10.8439 16.4638 10.6423C16.0527 10.5394 15.83 10.6192 15.6138 10.9425C14.9565 11.9251 14.2606 12.9035 13.5883 13.8504C13.3507 14.1842 13.1151 14.516 12.8796 14.8498C12.6655 15.1521 12.5028 15.3285 12.293 15.3285C12.0853 15.3285 11.9183 15.1521 11.7042 14.8477C11.4515 14.4908 11.1989 14.1338 10.9484 13.7748C10.2697 12.8132 9.56952 11.818 8.86725 10.8502C8.7816 10.7326 8.5782 10.6192 8.43903 10.615C7.80741 10.594 7.27214 10.7725 6.89317 11.1294C6.50991 11.4926 6.30651 12.0217 6.30437 12.66C6.30009 14.6209 6.30223 16.5798 6.30437 18.5408V19.7438C6.30437 19.8404 6.31294 19.937 6.31936 20.0378C6.31936 20.0378 6.31936 20.0378 6.31936 20.0399H8.10502V15.0765C8.10502 15.0408 8.10502 15.003 8.10074 14.9674C8.09217 14.854 8.08575 14.7238 8.13714 14.6062C8.18852 14.4866 8.28273 14.3942 8.36623 14.3123C8.39835 14.2808 8.42832 14.2514 8.45616 14.2199L8.56963 14.0918L8.69168 14.2136C8.72379 14.2472 8.76019 14.2787 8.79659 14.3081C8.8908 14.39 8.99785 14.4845 9.05994 14.6083C9.11989 14.7259 9.10919 14.8561 9.09848 14.9737C9.0942 15.0114 9.09206 15.0513 9.09206 15.087V20.0378H15.1813V14.7973C15.1813 14.5852 15.177 14.1884 15.6438 14.1716C15.8001 14.1653 15.9264 14.2052 16.0142 14.2871C16.1555 14.4236 16.1533 14.6293 16.1533 14.7973V14.854C16.1533 16.0927 16.1533 17.3314 16.1533 18.5702V20.042L16.1491 20.0399ZM12.278 14.4299L12.1624 14.3018C11.4965 13.5628 11.5415 13.3423 12.1195 12.3051L12.248 12.0742L12.3936 12.2946C13.0381 13.2646 13.0402 13.6404 12.3979 14.306L12.278 14.432V14.4299ZM12.2716 12.6915C11.8862 13.4074 11.914 13.5418 12.2844 13.9617C12.6377 13.567 12.6698 13.3381 12.2716 12.6915ZM11.3423 13.1974L10.8649 12.5235C10.6722 12.2506 10.4923 11.9965 10.3125 11.7425C10.1219 11.4716 9.9335 11.2029 9.71725 10.8942L9.27833 10.2686H9.58451C9.74081 10.2686 9.8864 10.2686 10.0256 10.2665C10.3703 10.2623 10.6679 10.2602 10.9698 10.2791C11.1603 10.2917 11.353 10.4281 11.4515 10.5499C11.8155 11.0034 12.1731 11.6186 11.687 12.3597C11.6335 12.4416 11.595 12.5445 11.5479 12.6747C11.52 12.7502 11.4901 12.8321 11.4515 12.9266L11.3402 13.1974H11.3423ZM9.88854 10.5835L9.98275 10.7158C10.199 11.0244 10.3874 11.2932 10.578 11.564C10.7557 11.818 10.9355 12.07 11.1304 12.3429L11.2631 12.5298C11.3102 12.4017 11.353 12.2904 11.4194 12.1897C11.7213 11.7299 11.6571 11.3121 11.2032 10.7452C11.1411 10.6675 11.0255 10.5982 10.9527 10.594C10.6615 10.5751 10.3703 10.5772 10.032 10.5814C9.98703 10.5814 9.93993 10.5814 9.89282 10.5814L9.88854 10.5835ZM13.3014 13.1009L13.1687 12.9203C12.5092 12.0238 12.4771 11.5136 13.0295 10.6507C13.3357 10.1699 14.0016 10.172 14.9736 10.3316L15.2241 10.3715L13.3036 13.1009H13.3014ZM14.0144 10.5499C13.5798 10.5499 13.4042 10.6549 13.2993 10.8166C12.8539 11.5157 12.8368 11.8747 13.2971 12.5508L14.6674 10.6024C14.3998 10.5667 14.1878 10.5499 14.0144 10.5499Z" fill="#1E1E1E"/>
<path d="M19.1267 22.5067C18.5978 22.5067 18.0647 22.5277 17.538 22.492C17.3838 22.4815 17.1419 22.3282 17.1162 22.2043C17.0584 21.9251 17.296 21.8705 17.5401 21.8705C18.6 21.8747 19.6598 21.86 20.7196 21.8852C20.8695 21.8894 21.1157 22.049 21.1414 22.1708C21.1992 22.4479 20.9616 22.5088 20.7154 22.5067C20.1865 22.5025 19.6555 22.5067 19.1267 22.5067Z" fill="#1E1E1E"/>
<path d="M18.2502 22.6727C18.0104 22.6727 17.7685 22.6685 17.5265 22.6518C17.3338 22.6392 17.0041 22.4544 16.957 22.2381C16.9206 22.0618 16.9763 21.9484 17.0277 21.8854C17.124 21.772 17.2889 21.7154 17.5351 21.7154H17.5394C17.8627 21.7154 18.1838 21.7154 18.5071 21.7154C19.233 21.7154 19.9845 21.7133 20.721 21.7301C20.9373 21.7343 21.2541 21.9358 21.297 22.1416C21.3334 22.3179 21.2777 22.4334 21.2242 22.4964C21.1257 22.614 20.9501 22.6664 20.7146 22.6664C20.3378 22.6643 19.9609 22.6643 19.5841 22.6664H19.1259C18.9803 22.6664 18.8347 22.6664 18.6891 22.6706C18.5435 22.6706 18.3979 22.6748 18.2502 22.6748V22.6727ZM17.5351 22.0303C17.3381 22.0303 17.2889 22.0723 17.2782 22.0849C17.261 22.1059 17.2675 22.15 17.2739 22.1752C17.2931 22.2213 17.4516 22.3305 17.5501 22.3368C17.9248 22.362 18.3123 22.3578 18.687 22.3536C18.8347 22.3536 18.9803 22.3494 19.1281 22.3494H19.5841C19.9631 22.3494 20.3399 22.3494 20.7189 22.3494C20.873 22.3494 20.9565 22.32 20.9779 22.2927C20.9951 22.2717 20.9908 22.2318 20.9844 22.2004C20.963 22.15 20.7981 22.0429 20.7167 22.0408C19.9823 22.024 19.2351 22.024 18.5093 22.0261C18.186 22.0261 17.8627 22.0261 17.5394 22.0261H17.5351V22.0303Z" fill="#1E1E1E"/>
<path d="M21.9227 34.1551C21.9227 35.0747 21.9377 35.9943 21.9098 36.9118C21.9056 37.0777 21.7428 37.359 21.6187 37.3779C21.3146 37.4262 21.2632 37.1575 21.2632 36.9118C21.2632 35.0579 21.2547 33.2041 21.2782 31.3523C21.2782 31.1969 21.4881 31.0457 21.5994 30.8925C21.7064 31.0457 21.9034 31.1969 21.9098 31.3544C21.9398 32.2887 21.9248 33.2229 21.9248 34.1572L21.9227 34.1551Z" fill="#1E1E1E"/>
<path d="M21.5496 37.5417C21.419 37.5417 21.3334 37.4934 21.2799 37.4493C21.1193 37.315 21.1 37.0777 21.1 36.9119V35.8054C21.1 34.3441 21.0957 32.8345 21.115 31.3481C21.115 31.1822 21.2413 31.0478 21.3527 30.9303C21.3933 30.8862 21.434 30.8421 21.4661 30.8001L21.5989 30.6174L21.7295 30.8022C21.7595 30.8463 21.8001 30.8904 21.8387 30.9324C21.9436 31.0499 22.0635 31.1843 22.0678 31.3481C22.0892 32.0493 22.0871 32.7632 22.0849 33.4539C22.0849 33.6891 22.0849 33.9221 22.0849 34.1573C22.0849 34.3924 22.0849 34.6255 22.0849 34.8606C22.0871 35.5346 22.0913 36.2316 22.0699 36.9182C22.0635 37.1365 21.8687 37.4997 21.6417 37.5354C21.6096 37.5396 21.5796 37.5438 21.5496 37.5438V37.5417ZM21.5946 31.1381C21.5946 31.1381 21.5925 31.1423 21.5903 31.1423C21.5282 31.2074 21.4383 31.3061 21.4362 31.3523C21.419 32.8366 21.419 34.3462 21.4212 35.8054V36.9119C21.4212 37.1239 21.464 37.189 21.4875 37.21C21.5068 37.2268 21.5411 37.231 21.5903 37.2226C21.631 37.1995 21.7445 37.0147 21.7466 36.9077C21.768 36.2274 21.7659 35.5325 21.7616 34.8606C21.7616 34.6255 21.7616 34.3903 21.7616 34.1552C21.7616 33.92 21.7616 33.6849 21.7616 33.4518C21.7637 32.7653 21.768 32.0535 21.7445 31.3586C21.7445 31.3082 21.6567 31.2116 21.5946 31.1402V31.1381Z" fill="#1E1E1E"/>
<path d="M18.2325 34.109C18.2325 33.2062 18.2325 32.3013 18.2325 31.3985C18.2325 31.1675 18.2111 30.8946 18.5537 30.8988C18.8792 30.903 18.8856 31.1591 18.8856 31.3985C18.8856 33.2377 18.8856 35.0748 18.8856 36.914C18.8856 37.1659 18.8385 37.4263 18.5344 37.3801C18.4124 37.3612 18.2497 37.0798 18.2454 36.9119C18.2176 35.9776 18.2325 35.0433 18.2325 34.109Z" fill="#1E1E1E"/>
<path d="M18.6012 37.5417C18.5734 37.5417 18.5434 37.5396 18.5113 37.5354C18.2715 37.4997 18.0916 37.1134 18.0852 36.9181C18.0638 36.219 18.0681 35.5073 18.0702 34.8207C18.0702 34.5835 18.0702 34.3462 18.0702 34.1111V33.3573C18.0702 32.7044 18.0702 32.0514 18.0702 31.3985V31.3586C18.0702 31.1969 18.0702 30.9932 18.2072 30.8589C18.2907 30.7791 18.4128 30.7392 18.5541 30.7392C19.0444 30.7455 19.0444 31.1843 19.0444 31.3964C19.0444 33.2356 19.0444 35.0727 19.0444 36.9119C19.0444 37.0924 19.0251 37.3192 18.8688 37.4493C18.8153 37.4934 18.7297 37.5417 18.5991 37.5417H18.6012ZM18.5477 31.0541C18.5134 31.0541 18.4599 31.0583 18.4363 31.0814C18.3935 31.1234 18.3935 31.2515 18.3957 31.3565V31.3964C18.3957 32.0493 18.3957 32.7023 18.3957 33.3552V34.109C18.3957 34.3462 18.3957 34.5835 18.3957 34.8207C18.3935 35.5052 18.3892 36.2127 18.4106 36.9077C18.4128 37.0147 18.5241 37.2016 18.5776 37.2268C18.6119 37.231 18.6462 37.2268 18.6654 37.21C18.689 37.189 18.7297 37.1239 18.7297 36.9119C18.7275 35.0727 18.7297 33.2356 18.7297 31.3964C18.7297 31.0898 18.6954 31.0562 18.5562 31.0541H18.5519H18.5477Z" fill="#1E1E1E"/>
<path d="M12.2318 15.8282C12.4009 16.0298 12.5915 16.1642 12.5722 16.2566C12.5423 16.393 12.3646 16.498 12.2489 16.6156C12.1376 16.5085 11.9556 16.4119 11.9385 16.2922C11.9235 16.181 12.0841 16.0466 12.2297 15.8303L12.2318 15.8282Z" fill="#1E1E1E"/>
<path d="M12.251 16.8403L12.1354 16.7269C12.1054 16.6975 12.069 16.6702 12.0347 16.6408C11.9256 16.5547 11.8014 16.4561 11.78 16.3112C11.7607 16.1726 11.8506 16.0571 11.9577 15.9249C12.0005 15.8703 12.0497 15.8094 12.0968 15.7401L12.2167 15.5616L12.3559 15.7254C12.4116 15.7905 12.4694 15.8493 12.5208 15.9018C12.6557 16.0382 12.7606 16.1453 12.7306 16.286C12.6985 16.433 12.5786 16.5358 12.4715 16.6282C12.4351 16.6597 12.3987 16.6891 12.3688 16.7227L12.2553 16.8382L12.251 16.8403ZM12.2424 16.0781C12.2317 16.0928 12.2189 16.1075 12.2082 16.1201C12.1632 16.1768 12.1011 16.2524 12.0968 16.2797C12.1054 16.2944 12.1868 16.3574 12.2339 16.3952C12.236 16.3973 12.2403 16.3994 12.2424 16.4015C12.2467 16.3973 12.251 16.3952 12.2553 16.391C12.3088 16.3448 12.3752 16.2881 12.4009 16.2461C12.3773 16.2146 12.3259 16.1621 12.2853 16.1222C12.2703 16.1075 12.2553 16.0928 12.2403 16.0781H12.2424Z" fill="#1E1E1E"/>
<path d="M12.7296 17.7242C12.507 17.8607 12.3678 18.0119 12.25 17.9972C12.128 17.9825 12.0274 17.8061 11.916 17.699C12.0381 17.5899 12.1494 17.4135 12.2864 17.3904C12.3871 17.3736 12.5219 17.5584 12.7296 17.7221V17.7242Z" fill="#1E1E1E"/>
<path d="M12.2662 18.1546C12.2533 18.1546 12.2405 18.1546 12.2298 18.1525C12.082 18.1336 11.9814 18.0139 11.8915 17.9089C11.8615 17.8753 11.8337 17.8396 11.8037 17.8123L11.6816 17.6969L11.8058 17.5835C11.8379 17.5541 11.8701 17.5184 11.9022 17.4827C11.9985 17.3777 12.1056 17.2602 12.2576 17.235C12.4053 17.2119 12.5167 17.319 12.6494 17.4407C12.7029 17.489 12.7607 17.5457 12.8293 17.5982L13.0048 17.7368L12.8121 17.8543C12.7415 17.8984 12.6772 17.9425 12.6216 17.9845C12.4974 18.0748 12.3903 18.1525 12.264 18.1525L12.2662 18.1546ZM12.1334 17.7032C12.1334 17.7032 12.1356 17.7074 12.1377 17.7074C12.1762 17.7536 12.2426 17.8312 12.2704 17.8396C12.2897 17.8354 12.3711 17.7746 12.431 17.7326C12.4417 17.7242 12.4546 17.7158 12.4674 17.7074C12.4546 17.6948 12.4396 17.6822 12.4267 17.6696C12.3818 17.6276 12.324 17.5751 12.2918 17.552C12.249 17.573 12.1869 17.6402 12.1398 17.6927C12.1377 17.6969 12.1334 17.699 12.1313 17.7032H12.1334Z" fill="#1E1E1E"/>
<path d="M12.7335 19.049C12.5173 19.2044 12.376 19.3786 12.2753 19.3598C12.1405 19.3325 12.0377 19.154 11.9199 19.0385C12.0334 18.9377 12.1426 18.7635 12.2646 18.7551C12.3845 18.7467 12.5173 18.9042 12.7335 19.049Z" fill="#1E1E1E"/>
<path d="M12.2915 19.5193C12.2743 19.5193 12.2594 19.5193 12.2422 19.5151C12.0924 19.4857 11.9896 19.3639 11.8975 19.2547C11.8675 19.219 11.8376 19.1833 11.8054 19.1519L11.6855 19.0343L11.8119 18.923C11.8418 18.8957 11.8718 18.8621 11.9039 18.8285C11.9981 18.7256 12.1031 18.6102 12.2529 18.5997C12.4028 18.5913 12.5099 18.6795 12.6405 18.7823C12.694 18.8243 12.7539 18.8726 12.8246 18.9188L13.013 19.0448L12.8289 19.177C12.7582 19.2274 12.6961 19.2799 12.6426 19.3261C12.5227 19.429 12.4157 19.5193 12.2936 19.5193H12.2915ZM12.1373 19.0448C12.1373 19.0448 12.1437 19.0511 12.1459 19.0553C12.1887 19.1057 12.2487 19.177 12.2893 19.2001C12.3236 19.1812 12.3835 19.1288 12.4306 19.0889C12.4435 19.0784 12.4563 19.0658 12.4713 19.0553C12.4606 19.0469 12.4478 19.0385 12.4371 19.028C12.3793 18.9818 12.2979 18.9188 12.2701 18.9125C12.2487 18.9209 12.1823 18.9944 12.1416 19.0385C12.1416 19.0385 12.1395 19.0427 12.1373 19.0427V19.0448Z" fill="#1E1E1E"/>
</svg>
