<svg width="41" height="41" viewBox="0 0 41 41" fill="none" xmlns="http://www.w3.org/2000/svg">
<path d="M5.84845 8.30431C7.19273 8.30431 8.29259 7.20445 8.29259 5.86016C8.29259 4.51588 7.19273 3.41602 5.84845 3.41602C4.50416 3.41602 3.4043 4.51588 3.4043 5.86016C3.4043 7.20445 4.50416 8.30431 5.84845 8.30431ZM5.84845 5.04545C6.29654 5.04545 6.66316 5.41207 6.66316 5.86016C6.66316 6.30826 6.29654 6.67488 5.84845 6.67488C5.40035 6.67488 5.03373 6.30826 5.03373 5.86016C5.03373 5.41207 5.40035 5.04545 5.84845 5.04545Z" fill="#1E1E1E"/>
<path d="M5.48288 13.9177C5.59694 13.9748 5.71914 14.0073 5.8495 14.0073C5.97985 14.0073 6.10206 13.9748 6.21612 13.9177C6.43609 13.8118 11.5525 11.1884 11.5525 5.86018C11.5525 2.71537 8.9943 0.157166 5.8495 0.157166C2.70469 0.157166 0.146484 2.71537 0.146484 5.86018C0.146484 11.1884 5.27105 13.8118 5.48288 13.9177ZM5.8495 1.7866C8.09812 1.7866 9.92308 3.61156 9.92308 5.86018C9.92308 9.42864 6.90863 11.6039 5.8495 12.2557C4.79037 11.6039 1.77592 9.42864 1.77592 5.86018C1.77592 3.61156 3.60088 1.7866 5.8495 1.7866Z" fill="#1E1E1E"/>
<path d="M31.1068 32.7458H27.8479C27.3998 32.7458 27.0332 33.1125 27.0332 33.5606C27.0332 34.0087 27.3998 34.3753 27.8479 34.3753H31.1068C31.5549 34.3753 31.9215 34.0087 31.9215 33.5606C31.9215 33.1125 31.5549 32.7458 31.1068 32.7458Z" fill="#1E1E1E"/>
<path d="M40.0677 27.8575H39.2529V23.7839C39.2529 22.4396 38.1531 21.3398 36.8088 21.3398H22.1439C20.7996 21.3398 19.6997 22.4396 19.6997 23.7839V27.8575H18.885C18.4369 27.8575 18.0703 28.2241 18.0703 28.6722C18.0703 29.1203 18.4369 29.4869 18.885 29.4869H19.6997V35.19C19.6997 36.2491 20.3841 37.1453 21.3292 37.4875V38.8562C21.3292 39.9805 22.2417 40.893 23.366 40.893H24.1807C25.305 40.893 26.2175 39.9805 26.2175 38.8562V37.6341H32.7352V38.8562C32.7352 39.9805 33.6477 40.893 34.772 40.893H35.5867C36.711 40.893 37.6235 39.9805 37.6235 38.8562V37.4875C38.5686 37.1453 39.2529 36.2491 39.2529 35.19V29.4869H40.0677C40.5157 29.4869 40.8824 29.1203 40.8824 28.6722C40.8824 28.2241 40.5157 27.8575 40.0677 27.8575ZM24.588 38.8562C24.588 39.0843 24.4088 39.2635 24.1807 39.2635H23.366C23.1378 39.2635 22.9586 39.0843 22.9586 38.8562V37.6341H24.588V38.8562ZM35.9941 38.8562C35.9941 39.0843 35.8148 39.2635 35.5867 39.2635H34.772C34.5439 39.2635 34.3646 39.0843 34.3646 38.8562V37.6341H35.9941V38.8562ZM37.6235 32.7458H36.8088C36.3607 32.7458 35.9941 33.1124 35.9941 33.5605C35.9941 34.0086 36.3607 34.3752 36.8088 34.3752H37.6235V35.19C37.6235 35.6381 37.2569 36.0047 36.8088 36.0047H22.1439C21.6958 36.0047 21.3292 35.6381 21.3292 35.19V34.3752H22.1439C22.592 34.3752 22.9586 34.0086 22.9586 33.5605C22.9586 33.1124 22.592 32.7458 22.1439 32.7458H21.3292V31.1164H37.6235V32.7458ZM37.6235 29.4869H21.3292V23.7839C21.3292 23.3358 21.6958 22.9692 22.1439 22.9692H36.8088C37.2569 22.9692 37.6235 23.3358 37.6235 23.7839V29.4869Z" fill="#1E1E1E"/>
<path d="M25.4426 27.768C25.8174 27.9554 26.3306 27.8087 26.5343 27.4014L27.349 25.7719C27.5527 25.3727 27.3898 24.8839 26.9824 24.6802C26.575 24.4765 26.0944 24.6395 25.8907 25.0468L25.076 26.6763C24.8723 27.0755 25.0352 27.5643 25.4426 27.768Z" fill="#1E1E1E"/>
<path d="M28.7024 27.768C29.1016 27.9635 29.5985 27.8006 29.7941 27.4014L30.6088 25.7719C30.8125 25.3727 30.6495 24.8839 30.2422 24.6802C29.843 24.4765 29.3541 24.6395 29.1504 25.0468L28.3357 26.6763C28.1321 27.0755 28.295 27.5643 28.7024 27.768Z" fill="#1E1E1E"/>
<path d="M31.9602 27.768C32.3594 27.9635 32.8564 27.8006 33.0519 27.4014L33.8666 25.7719C34.0703 25.3727 33.9073 24.8839 33.5 24.6802C33.0926 24.4765 32.6038 24.6395 32.4083 25.0468L31.5935 26.6763C31.3899 27.0755 31.5528 27.5643 31.9602 27.768Z" fill="#1E1E1E"/>
<path d="M17.2555 32.7458H3.40535C2.50916 32.7458 1.77592 32.0126 1.77592 31.1164C1.77592 30.2202 2.50916 29.487 3.40535 29.487H13.1819C15.4306 29.487 17.2555 27.662 17.2555 25.4134C17.2555 23.1648 15.4306 21.3398 13.1819 21.3398H6.25686C5.58064 21.3398 5.03478 20.7939 5.03478 20.1177C5.03478 19.4415 5.58064 18.8957 6.25686 18.8957H37.6234C39.424 18.8957 40.8823 17.4373 40.8823 15.6368C40.8823 13.8363 39.424 12.3779 37.6234 12.3779H10.7378C10.2897 12.3779 9.92308 12.7446 9.92308 13.1926C9.92308 13.6407 10.2897 14.0074 10.7378 14.0074H37.6234C38.5196 14.0074 39.2529 14.7406 39.2529 15.6368C39.2529 16.533 38.5196 17.2662 37.6234 17.2662H6.25686C4.68445 17.2662 3.40535 18.5453 3.40535 20.1177C3.40535 21.6901 4.68445 22.9692 6.25686 22.9692H13.1819C14.5262 22.9692 15.6261 24.0691 15.6261 25.4134C15.6261 26.7577 14.5262 27.8575 13.1819 27.8575H3.40535C1.60483 27.8575 0.146484 29.3159 0.146484 31.1164C0.146484 32.9169 1.60483 34.3753 3.40535 34.3753H17.2555C17.7036 34.3753 18.0702 34.0086 18.0702 33.5606C18.0702 33.1125 17.7036 32.7458 17.2555 32.7458Z" fill="#1E1E1E"/>
</svg>
