<svg width="42" height="43" viewBox="0 0 42 43" fill="none" xmlns="http://www.w3.org/2000/svg">
<path fill-rule="evenodd" clip-rule="evenodd" d="M41.5715 35.784C41.4152 35.562 41.1685 35.4386 40.9054 35.4386H38.1421C39.828 34.0817 40.9054 32.0092 40.9054 29.6819C40.9054 25.8824 38.0188 22.7408 34.3262 22.3296V21.3428C34.6634 21.4497 35.0335 21.5237 35.4364 21.5237C35.8723 21.5237 36.3246 21.4414 36.7934 21.2194C37.0977 21.0714 38.6273 20.2408 38.7836 17.9874C38.8 17.7078 38.6684 17.4282 38.4382 17.2637C36.596 15.9643 34.9841 16.614 34.6716 16.762C34.5482 16.8196 34.4413 16.9018 34.3262 16.9758V16.5235C34.3262 16.0712 33.9561 15.7011 33.5038 15.7011C33.0515 15.7011 32.6814 16.0712 32.6814 16.5235V22.3296C29.8688 22.6421 27.4674 24.5337 26.5217 27.2147H21.0774L21.6449 16.4989C25.0496 16.2521 27.747 13.4149 27.747 9.94436C27.747 6.47385 24.7946 3.3652 21.1679 3.3652C17.8207 3.3652 15.0492 5.88173 14.6463 9.12197H9.27603L9.01287 5.19914C8.88128 3.23362 7.36808 1.62994 5.419 1.39145L1.52907 0.898013C1.07675 0.848669 0.673777 1.1694 0.616209 1.62172C0.558641 2.06581 0.879375 2.47701 1.33169 2.53458L5.2134 3.01979C6.3812 3.16782 7.29406 4.13003 7.36808 5.30605L7.62302 9.12197H1.43038C1.20833 9.12197 0.986287 9.21243 0.830032 9.37691C0.682001 9.54139 0.599761 9.76344 0.607985 9.98548L2.25278 41.2365C2.27745 41.6724 2.6393 42.0178 3.07517 42.0178H24.4575C24.9098 42.0178 25.2799 41.6477 25.2799 41.1954C25.2799 40.7431 24.9098 40.373 24.4575 40.373H18.602C17.5411 40.373 16.5954 39.6904 16.2664 38.6789L15.7318 37.0834H39.7622L39.2277 38.6871C38.8987 39.6904 37.9612 40.373 36.8921 40.373H31.0366C30.5843 40.373 30.2142 40.7431 30.2142 41.1954C30.2142 41.6477 30.5843 42.0178 31.0366 42.0178H36.8921C38.6684 42.0178 40.231 40.8829 40.7902 39.2052L41.6866 36.5242C41.7689 36.2692 41.7278 35.9978 41.5715 35.784ZM35.3789 18.2506C35.4693 18.2094 36.1601 17.9134 37.073 18.3575C36.8345 19.3443 36.1684 19.6897 36.0861 19.7309C35.4858 20.0187 34.8279 19.8213 34.4084 19.624C34.5236 19.1716 34.7785 18.5302 35.3789 18.2506ZM21.1679 5.00999C23.89 5.00999 26.1022 7.22223 26.1022 9.94436C26.1022 12.4773 24.1861 14.5662 21.7353 14.8458L21.9903 9.98548C22.0149 9.51672 21.6366 9.12197 21.1679 9.12197H16.3075C16.7023 6.79459 18.7254 5.00999 21.1679 5.00999ZM20.3044 10.7668L19.4326 27.2147H17.7878C17.7878 27.2147 18.5198 13.2997 18.5198 13.2751C18.5444 12.8145 18.1579 12.4115 17.6974 12.4115H9.48986L9.38295 10.7668H20.3044ZM16.8338 14.0563L16.5542 19.4266C15.0164 19.9447 13.5772 20.1009 12.286 19.8296C11.4965 19.6651 10.7317 19.3855 9.94217 19.2128L9.60499 14.0563H16.8338ZM7.95198 14.0563L8.28093 19.0072C8.19047 19.0072 8.11646 18.9907 8.02599 18.9907C7.35985 18.9825 6.69371 19.0401 6.0358 19.1552L5.7644 14.0563H7.95198ZM3.85645 40.373L2.2939 10.7668H7.72993L7.84507 12.4115H4.90089C4.67884 12.4115 4.4568 12.502 4.30054 12.6665C4.15251 12.831 4.07027 13.053 4.07849 13.2751L5.36966 37.9469C5.39433 38.3828 5.75618 38.7282 6.19205 38.7282H14.5476L14.7038 39.197C14.8437 39.6328 15.0575 40.0276 15.3124 40.373H3.85645ZM14.5887 35.4386C14.3255 35.4386 14.0788 35.562 13.9226 35.784C13.7663 35.9978 13.7252 36.2692 13.8074 36.5242L13.9966 37.0834H6.97333L6.11803 20.8082C6.74306 20.6848 7.36808 20.6273 8.00132 20.6355C8.14113 20.6355 8.26449 20.652 8.39607 20.6602L8.83194 27.2722C8.86484 27.7246 9.27603 28.0371 9.7119 28.0371C10.1642 28.0042 10.5014 27.6094 10.4767 27.1571C10.3369 25.0847 10.2053 23.004 10.0573 20.9316C10.0573 21.0385 11.8255 21.4168 11.957 21.4415C12.4998 21.5566 13.0673 21.6142 13.6512 21.6142C14.5476 21.6142 15.4933 21.4661 16.4555 21.1947L16.143 27.2147H15.4111C14.9588 27.2147 14.5887 27.5847 14.5887 28.0371V29.6819C14.5887 32.0092 15.666 34.0817 17.352 35.4386H14.5887ZM21.9903 35.4386C18.8158 35.4386 16.2335 32.8563 16.2335 29.6819V28.8595H27.747V29.6819C27.747 32.8563 25.1647 35.4386 21.9903 35.4386ZM26.6286 35.4386C27.048 35.1014 27.4181 34.7314 27.7553 34.3202C28.0842 34.7314 28.4543 35.1097 28.8573 35.4386H26.6286ZM33.5038 35.4386C31.5383 35.4386 29.7372 34.4353 28.6928 32.807C29.1369 31.853 29.3918 30.8003 29.3918 29.6819V28.0371C29.3918 27.5847 29.0217 27.2147 28.5694 27.2147H28.3063C29.2438 25.2409 31.2504 23.9251 33.5038 23.9251C36.6782 23.9251 39.2606 26.5074 39.2606 29.6819C39.2606 32.8563 36.6782 35.4386 33.5038 35.4386Z" fill="#1E1E1E"/>
</svg>
